<?xml version="1.0" encoding="utf-8"?>
<!-- Generator: Adobe Illustrator 27.5.0, SVG Export Plug-In . SVG Version: 6.00 Build 0)  -->
<svg version="1.1" xmlns="http://www.w3.org/2000/svg" xmlns:xlink="http://www.w3.org/1999/xlink" x="0px" y="0px"
	 viewBox="0 0 500 500" style="enable-background:new 0 0 500 500;" xml:space="preserve">
<g id="BACKGROUND">
	<rect y="0.017" style="fill:#4426C7;" width="500" height="500"/>
</g>
<g id="OBJECTS">
	
		<ellipse transform="matrix(0.7071 -0.7071 0.7071 0.7071 -88.2763 245.3087)" style="fill:#5B44DD;" cx="251.976" cy="229.213" rx="205.3" ry="205.3"/>
	<g>
		<g>
			<g>
				<g>
					<defs>
						<path id="XMLID_11_" d="M269.796,368.311l-74.786-11.905l-104.63,68.479c-22.245,18.132-40.852,45.714-51.943,75.132h390.768
							C393.445,452.87,335.697,389.846,269.796,368.311z"/>
					</defs>
					<use xlink:href="#XMLID_11_"  style="overflow:visible;fill:#F5E5DC;"/>
					<clipPath id="XMLID_00000171697479038822687840000018315971369229173673_">
						<use xlink:href="#XMLID_11_"  style="overflow:visible;"/>
					</clipPath>
					<path style="clip-path:url(#XMLID_00000171697479038822687840000018315971369229173673_);fill:#EBD7CE;" d="M238.72,337.765
						c0,0-79.332,77.101-99.199,105.931c-19.867,28.83-39.797,84.483-39.797,84.483l-113.731-10.337l53.786-145.574L238.72,337.765z
						"/>
				</g>
			</g>
			<g>
				<g>
					<path style="fill:#EAAB47;" d="M145.434,388.852c0,0,82.135,47.316,146.126,111.165H191.21c0,0-49.414-47.292-100.83-75.132
						C90.379,424.885,118.303,402.983,145.434,388.852z"/>
					<path style="fill:#F1CB4E;" d="M287.406,500.017c-24.48-25.859-60.754-52.503-88.53-72.032
						c-30.145-21.193-56.321-37.322-56.566-37.473l5.382-3.137c0.247,0.152,24.346,14.407,54.635,35.702
						c28,19.686,68.03,50.72,92.853,76.94H287.406z"/>
					<path style="fill:#F1CB4E;" d="M186.988,500.017c-41.418-42.284-98.371-72.856-98.953-73.174l4.792-3.838
						c0.59,0.322,60.154,34.077,102.212,77.013H186.988z"/>
					<path style="fill:none;stroke:#DF6645;stroke-width:2.1885;stroke-linejoin:bevel;stroke-miterlimit:10;" d="M92.827,423.005
						c0,0,70.211,39.921,102.212,77.013"/>
					<path style="fill:none;stroke:#DF6645;stroke-width:2.1885;stroke-linejoin:bevel;stroke-miterlimit:10;" d="M142.31,390.512
						c0,0,65.087,38.452,145.096,109.506"/>
				</g>
				<g>
					<path style="fill:#EAAB47;" d="M397.344,461.297l-23.758,38.72h55.618C429.205,500.017,410.583,475.195,397.344,461.297z"/>
					<polygon style="fill:#F1CB4E;" points="402.514,466.951 383.796,500.017 373.586,500.017 397.344,461.297 					"/>
					
						<line style="fill:none;stroke:#DF6645;stroke-width:2.1885;stroke-linejoin:bevel;stroke-miterlimit:10;" x1="402.514" y1="466.951" x2="383.796" y2="500.017"/>
				</g>
				<g>
					<defs>
						<rect id="SVGID_1_" x="164.197" y="348.46" width="282.542" height="151.558"/>
					</defs>
					<clipPath id="SVGID_00000181767204457127049900000010599779789887699348_">
						<use xlink:href="#SVGID_1_"  style="overflow:visible;"/>
					</clipPath>
					<g style="clip-path:url(#SVGID_00000181767204457127049900000010599779789887699348_);">
						<g>
							<path style="fill:#FFFFFF;stroke:#E2C6BA;stroke-width:0.5;stroke-miterlimit:10;" d="M333.501,396.013
								c0.628,2.549-0.93,5.124-3.479,5.751c-2.549,0.628-5.124-0.93-5.751-3.479c-0.628-2.549,0.93-5.124,3.479-5.751
								C330.298,391.906,332.873,393.464,333.501,396.013z"/>
							<path style="fill:#FFFFFF;stroke:#E2C6BA;stroke-width:0.5;stroke-miterlimit:10;" d="M338.811,401.568
								c0.628,2.549-0.93,5.124-3.479,5.751c-2.549,0.628-5.124-0.93-5.751-3.478c-0.628-2.549,0.93-5.124,3.479-5.751
								C335.609,397.462,338.184,399.02,338.811,401.568z"/>
							<path style="fill:#FFFFFF;stroke:#E2C6BA;stroke-width:0.5;stroke-miterlimit:10;" d="M344.139,407.214
								c0.628,2.549-0.93,5.124-3.478,5.751c-2.549,0.628-5.124-0.93-5.751-3.479c-0.628-2.549,0.93-5.124,3.479-5.751
								C340.936,403.108,343.511,404.665,344.139,407.214z"/>
							<path style="fill:#FFFFFF;stroke:#E2C6BA;stroke-width:0.5;stroke-miterlimit:10;" d="M349.417,413.694
								c0.628,2.549-0.93,5.124-3.479,5.751c-2.549,0.628-5.124-0.93-5.751-3.479c-0.628-2.549,0.93-5.124,3.479-5.751
								C346.214,409.588,348.789,411.145,349.417,413.694z"/>
							<path style="fill:#FFFFFF;stroke:#E2C6BA;stroke-width:0.5;stroke-miterlimit:10;" d="M354.285,419.559
								c0.628,2.549-0.93,5.124-3.479,5.751c-2.549,0.628-5.124-0.93-5.751-3.478c-0.628-2.549,0.93-5.124,3.478-5.751
								C351.082,415.453,353.657,417.01,354.285,419.559z"/>
							<path style="fill:#FFFFFF;stroke:#E2C6BA;stroke-width:0.5;stroke-miterlimit:10;" d="M359.013,425.734
								c0.628,2.549-0.93,5.124-3.478,5.751s-5.124-0.93-5.751-3.478c-0.628-2.549,0.93-5.124,3.479-5.751
								C355.81,421.628,358.385,423.185,359.013,425.734z"/>
							<path style="fill:#FFFFFF;stroke:#E2C6BA;stroke-width:0.5;stroke-miterlimit:10;" d="M363.448,432.194
								c0.628,2.549-0.93,5.124-3.479,5.751s-5.124-0.93-5.751-3.478c-0.628-2.549,0.93-5.124,3.478-5.751
								S362.82,429.645,363.448,432.194z"/>
							<path style="fill:#FFFFFF;stroke:#E2C6BA;stroke-width:0.5;stroke-miterlimit:10;" d="M367.598,438.093
								c0.628,2.549-0.93,5.124-3.479,5.751c-2.549,0.628-5.124-0.93-5.751-3.479c-0.628-2.549,0.93-5.124,3.479-5.751
								C364.396,433.987,366.971,435.544,367.598,438.093z"/>
							<path style="fill:#FFFFFF;stroke:#E2C6BA;stroke-width:0.5;stroke-miterlimit:10;" d="M371.859,444.573
								c0.628,2.549-0.93,5.124-3.479,5.751c-2.549,0.628-5.124-0.93-5.751-3.479c-0.628-2.549,0.93-5.124,3.479-5.751
								C368.656,440.467,371.231,442.025,371.859,444.573z"/>
							<path style="fill:#FFFFFF;stroke:#E2C6BA;stroke-width:0.5;stroke-miterlimit:10;" d="M375.718,451.128
								c0.628,2.549-0.93,5.124-3.478,5.751c-2.549,0.628-5.124-0.93-5.751-3.479c-0.628-2.549,0.93-5.124,3.478-5.751
								C372.515,447.021,375.09,448.579,375.718,451.128z"/>
							<path style="fill:#FFFFFF;stroke:#E2C6BA;stroke-width:0.5;stroke-miterlimit:10;" d="M379.318,457.771
								c0.628,2.549-0.93,5.124-3.479,5.751c-2.549,0.628-5.124-0.93-5.751-3.479s0.93-5.124,3.479-5.751
								C376.116,453.664,378.691,455.222,379.318,457.771z"/>
							<path style="fill:#FFFFFF;stroke:#E2C6BA;stroke-width:0.5;stroke-miterlimit:10;" d="M382.489,464.567
								c0.627,2.549-0.93,5.124-3.479,5.751c-2.549,0.628-5.124-0.93-5.751-3.479c-0.628-2.549,0.93-5.124,3.479-5.751
								C379.286,460.461,381.861,462.018,382.489,464.567z"/>
							<path style="fill:#FFFFFF;stroke:#E2C6BA;stroke-width:0.5;stroke-miterlimit:10;" d="M385.718,471.981
								c0.628,2.549-0.93,5.124-3.479,5.751c-2.549,0.628-5.124-0.93-5.751-3.478c-0.628-2.549,0.93-5.124,3.478-5.751
								C382.515,467.875,385.09,469.432,385.718,471.981z"/>
							<path style="fill:#FFFFFF;stroke:#E2C6BA;stroke-width:0.5;stroke-miterlimit:10;" d="M388.016,478.944
								c0.628,2.549-0.93,5.124-3.479,5.751c-2.549,0.628-5.124-0.93-5.751-3.479s0.93-5.124,3.479-5.751
								C384.814,474.838,387.389,476.396,388.016,478.944z"/>
							<path style="fill:#FFFFFF;stroke:#E2C6BA;stroke-width:0.5;stroke-miterlimit:10;" d="M390.305,486.733
								c0.628,2.549-0.93,5.124-3.479,5.751c-2.549,0.628-5.124-0.93-5.751-3.479c-0.628-2.549,0.93-5.124,3.479-5.751
								C387.102,482.627,389.677,484.184,390.305,486.733z"/>
							<path style="fill:#FFFFFF;stroke:#E2C6BA;stroke-width:0.5;stroke-miterlimit:10;" d="M392.361,494.494
								c0.628,2.549-0.93,5.124-3.478,5.751c-2.549,0.628-5.124-0.93-5.751-3.478c-0.628-2.549,0.93-5.124,3.479-5.751
								C389.159,490.388,391.734,491.945,392.361,494.494z"/>
							<path style="fill:#FFFFFF;stroke:#E2C6BA;stroke-width:0.5;stroke-miterlimit:10;" d="M393.88,501.046
								c0.628,2.549-0.93,5.124-3.479,5.751c-2.549,0.627-5.124-0.93-5.751-3.479c-0.628-2.549,0.93-5.124,3.479-5.751
								C390.678,496.939,393.253,498.497,393.88,501.046z"/>
						</g>
						<g>
							<path style="fill:#FFFFFF;stroke:#E2C6BA;stroke-width:0.5621;stroke-miterlimit:10;" d="M186.571,363.717
								c0.706,2.865-1.045,5.76-3.911,6.466c-2.865,0.706-5.76-1.045-6.466-3.911c-0.706-2.865,1.045-5.76,3.911-6.466
								C182.97,359.1,185.865,360.851,186.571,363.717z"/>
							<path style="fill:#FFFFFF;stroke:#E2C6BA;stroke-width:0.5621;stroke-miterlimit:10;" d="M189.102,370.692
								c0.706,2.865-1.045,5.76-3.911,6.466c-2.866,0.706-5.76-1.045-6.466-3.911c-0.706-2.866,1.045-5.761,3.911-6.466
								C185.502,366.076,188.397,367.827,189.102,370.692z"/>
							<path style="fill:#FFFFFF;stroke:#E2C6BA;stroke-width:0.5621;stroke-miterlimit:10;" d="M193.135,377.568
								c0.706,2.866-1.045,5.76-3.911,6.466c-2.866,0.706-5.76-1.045-6.466-3.911c-0.706-2.866,1.045-5.76,3.911-6.466
								C189.535,372.952,192.43,374.703,193.135,377.568z"/>
							<path style="fill:#FFFFFF;stroke:#E2C6BA;stroke-width:0.5621;stroke-miterlimit:10;" d="M198.415,384.934
								c0.706,2.866-1.045,5.76-3.911,6.466c-2.866,0.706-5.76-1.045-6.466-3.911s1.045-5.76,3.911-6.466
								C194.815,380.317,197.709,382.068,198.415,384.934z"/>
							<path style="fill:#FFFFFF;stroke:#E2C6BA;stroke-width:0.5621;stroke-miterlimit:10;" d="M203.869,391.992
								c0.706,2.866-1.045,5.76-3.911,6.466s-5.76-1.045-6.466-3.911c-0.706-2.866,1.045-5.76,3.911-6.466
								C200.268,387.375,203.163,389.126,203.869,391.992z"/>
							<path style="fill:#FFFFFF;stroke:#E2C6BA;stroke-width:0.5621;stroke-miterlimit:10;" d="M209.387,398.41
								c0.706,2.866-1.045,5.76-3.911,6.466s-5.76-1.045-6.466-3.911c-0.706-2.866,1.045-5.76,3.911-6.466
								C205.787,393.793,208.682,395.544,209.387,398.41z"/>
							<path style="fill:#FFFFFF;stroke:#E2C6BA;stroke-width:0.5621;stroke-miterlimit:10;" d="M215.097,404.404
								c0.706,2.866-1.045,5.76-3.911,6.466c-2.865,0.706-5.76-1.045-6.466-3.911c-0.706-2.865,1.045-5.76,3.911-6.466
								C211.497,399.787,214.392,401.538,215.097,404.404z"/>
							<path style="fill:#FFFFFF;stroke:#E2C6BA;stroke-width:0.5621;stroke-miterlimit:10;" d="M221.603,410.354
								c0.706,2.866-1.045,5.76-3.911,6.466c-2.866,0.706-5.76-1.045-6.466-3.911s1.045-5.76,3.911-6.466
								C218.003,405.737,220.898,407.488,221.603,410.354z"/>
							<path style="fill:#FFFFFF;stroke:#E2C6BA;stroke-width:0.5621;stroke-miterlimit:10;" d="M227.635,416.091
								c0.706,2.865-1.045,5.76-3.911,6.466c-2.866,0.706-5.76-1.045-6.466-3.911c-0.706-2.865,1.045-5.76,3.911-6.466
								C224.035,411.474,226.929,413.225,227.635,416.091z"/>
							<path style="fill:#FFFFFF;stroke:#E2C6BA;stroke-width:0.5621;stroke-miterlimit:10;" d="M234.805,421.428
								c0.706,2.866-1.045,5.76-3.911,6.466c-2.865,0.706-5.76-1.045-6.466-3.911c-0.706-2.865,1.045-5.76,3.911-6.466
								C231.204,416.811,234.099,418.562,234.805,421.428z"/>
							<path style="fill:#FFFFFF;stroke:#E2C6BA;stroke-width:0.5621;stroke-miterlimit:10;" d="M241.827,426.169
								c0.706,2.866-1.045,5.76-3.911,6.466c-2.865,0.706-5.76-1.045-6.466-3.911c-0.706-2.866,1.045-5.76,3.911-6.466
								C238.227,421.552,241.122,423.303,241.827,426.169z"/>
							<path style="fill:#FFFFFF;stroke:#E2C6BA;stroke-width:0.5621;stroke-miterlimit:10;" d="M248.406,431.737
								c0.706,2.866-1.045,5.76-3.911,6.466c-2.865,0.706-5.76-1.045-6.466-3.911s1.045-5.76,3.911-6.466
								C244.805,427.121,247.7,428.872,248.406,431.737z"/>
							<path style="fill:#FFFFFF;stroke:#E2C6BA;stroke-width:0.5621;stroke-miterlimit:10;" d="M255.412,436.788
								c0.706,2.866-1.045,5.76-3.911,6.466c-2.865,0.706-5.76-1.045-6.466-3.911c-0.706-2.866,1.045-5.76,3.911-6.466
								S254.706,433.922,255.412,436.788z"/>
							<path style="fill:#FFFFFF;stroke:#E2C6BA;stroke-width:0.5621;stroke-miterlimit:10;" d="M262.711,442.801
								c0.706,2.866-1.045,5.76-3.911,6.466c-2.866,0.706-5.76-1.045-6.466-3.911s1.045-5.76,3.911-6.466
								C259.11,438.184,262.005,439.935,262.711,442.801z"/>
							<path style="fill:#FFFFFF;stroke:#E2C6BA;stroke-width:0.5621;stroke-miterlimit:10;" d="M270.01,448.334
								c0.706,2.866-1.045,5.76-3.911,6.466c-2.865,0.705-5.76-1.046-6.466-3.911s1.045-5.76,3.911-6.466
								C266.409,443.717,269.304,445.468,270.01,448.334z"/>
							<path style="fill:#FFFFFF;stroke:#E2C6BA;stroke-width:0.5621;stroke-miterlimit:10;" d="M277.303,453.075
								c0.706,2.866-1.045,5.761-3.911,6.466c-2.866,0.705-5.76-1.045-6.466-3.911c-0.706-2.865,1.045-5.76,3.911-6.466
								C273.702,448.458,276.597,450.209,277.303,453.075z"/>
							<path style="fill:#FFFFFF;stroke:#E2C6BA;stroke-width:0.5621;stroke-miterlimit:10;" d="M284.207,458.63
								c0.706,2.866-1.045,5.76-3.911,6.466c-2.866,0.706-5.76-1.045-6.466-3.911c-0.706-2.866,1.045-5.76,3.911-6.466
								S283.502,455.764,284.207,458.63z"/>
							<path style="fill:#FFFFFF;stroke:#E2C6BA;stroke-width:0.5621;stroke-miterlimit:10;" d="M291.133,464.452
								c0.706,2.866-1.045,5.76-3.911,6.466s-5.76-1.045-6.466-3.911c-0.706-2.866,1.045-5.76,3.911-6.466
								C287.533,459.835,290.428,461.586,291.133,464.452z"/>
							<path style="fill:#FFFFFF;stroke:#E2C6BA;stroke-width:0.5621;stroke-miterlimit:10;" d="M298.728,468.991
								c0.706,2.866-1.045,5.76-3.911,6.466c-2.866,0.706-5.76-1.045-6.466-3.911c-0.706-2.866,1.045-5.76,3.911-6.466
								S298.022,466.125,298.728,468.991z"/>
							<path style="fill:#FFFFFF;stroke:#E2C6BA;stroke-width:0.5621;stroke-miterlimit:10;" d="M305.565,473.835
								c0.706,2.866-1.045,5.76-3.911,6.466s-5.76-1.045-6.466-3.911c-0.706-2.866,1.045-5.76,3.911-6.466
								C301.965,469.219,304.86,470.97,305.565,473.835z"/>
							<path style="fill:#FFFFFF;stroke:#E2C6BA;stroke-width:0.5621;stroke-miterlimit:10;" d="M312.041,478.356
								c0.706,2.865-1.045,5.76-3.911,6.466c-2.866,0.706-5.76-1.045-6.466-3.911c-0.706-2.865,1.045-5.76,3.911-6.466
								C308.441,473.739,311.336,475.49,312.041,478.356z"/>
							<path style="fill:#FFFFFF;stroke:#E2C6BA;stroke-width:0.5621;stroke-miterlimit:10;" d="M318.954,484.228
								c0.706,2.866-1.045,5.76-3.911,6.466c-2.865,0.706-5.76-1.045-6.466-3.911c-0.706-2.866,1.045-5.76,3.911-6.466
								C315.353,479.612,318.248,481.362,318.954,484.228z"/>
							<path style="fill:#FFFFFF;stroke:#E2C6BA;stroke-width:0.5621;stroke-miterlimit:10;" d="M326.334,490.046
								c0.706,2.865-1.045,5.76-3.911,6.466c-2.865,0.706-5.76-1.045-6.466-3.911c-0.706-2.866,1.045-5.76,3.911-6.466
								C322.734,485.43,325.629,487.181,326.334,490.046z"/>
							<path style="fill:#FFFFFF;stroke:#E2C6BA;stroke-width:0.5621;stroke-miterlimit:10;" d="M333.212,495.821
								c0.706,2.866-1.045,5.76-3.911,6.466c-2.865,0.706-5.76-1.045-6.466-3.911c-0.706-2.865,1.045-5.76,3.911-6.466
								C329.611,491.205,332.506,492.956,333.212,495.821z"/>
							<path style="fill:#FFFFFF;stroke:#E2C6BA;stroke-width:0.5621;stroke-miterlimit:10;" d="M340.81,501.938
								c0.706,2.866-1.045,5.76-3.911,6.466c-2.866,0.706-5.76-1.045-6.466-3.911c-0.706-2.866,1.045-5.76,3.911-6.466
								C337.209,497.322,340.104,499.073,340.81,501.938z"/>
							<path style="fill:#FFFFFF;stroke:#E2C6BA;stroke-width:0.5621;stroke-miterlimit:10;" d="M347.641,507.525
								c0.706,2.866-1.045,5.76-3.911,6.466c-2.866,0.706-5.76-1.045-6.466-3.911c-0.706-2.866,1.045-5.76,3.911-6.466
								C344.041,502.909,346.935,504.66,347.641,507.525z"/>
							<path style="fill:#FFFFFF;stroke:#E2C6BA;stroke-width:0.5621;stroke-miterlimit:10;" d="M354.507,513.717
								c0.706,2.865-1.045,5.76-3.911,6.466c-2.866,0.706-5.76-1.045-6.466-3.911c-0.706-2.866,1.045-5.76,3.911-6.466
								S353.801,510.852,354.507,513.717z"/>
						</g>
					</g>
				</g>
			</g>
		</g>
		<g>
			<g>
				<g>
					<path style="fill:#532418;" d="M167.547,295.073c0,0,6.343,16.95,23.321,3.955l27.561,8.766c0,0-4.24,25.865-29.682,19.505
						C163.307,320.938,167.547,295.073,167.547,295.073z"/>
					
						<ellipse transform="matrix(0.8935 -0.4491 0.4491 0.8935 -107.1845 122.3954)" style="fill:#532418;" cx="204.435" cy="287.158" rx="27.19" ry="27.19"/>
				</g>
				<g>
					<path style="fill:#D39E91;" d="M342.114,339.942l-26.847,83.614c-2.106,6.56-8.931,10.43-15.625,8.796
						c-77.549-18.924-104.633-75.946-104.633-75.946l26.928-87.097L342.114,339.942z"/>
					
						<linearGradient id="SVGID_00000100348561217597061850000015671400767862249605_" gradientUnits="userSpaceOnUse" x1="158.1874" y1="281.5319" x2="337.7871" y2="385.2238">
						<stop  offset="0" style="stop-color:#C3867D"/>
						<stop  offset="0.0118" style="stop-color:#C3867D;stop-opacity:0.9882"/>
						<stop  offset="1" style="stop-color:#BB8179;stop-opacity:0"/>
					</linearGradient>
					<path style="fill:url(#SVGID_00000100348561217597061850000015671400767862249605_);" d="M191.21,224.336l74.129,195.321
						c0,0,14.884,8.147,34.157,12.841c6.73,1.639,13.599-2.176,15.717-8.771l22.747-70.845L191.21,224.336z"/>
					<polygon style="fill:#C28077;" points="257.408,337.765 320.656,406.77 332.874,368.72 					"/>
					<path style="fill:#EAAB47;" d="M315.267,423.556c-0.081,0.252-0.423,0.87-0.515,1.106c-1.749,4.49-8.579,6.121-13.558,5.112
						c-38.916-7.909-65.146-27.68-80.297-42.873c-16.458-16.503-23.786-31.336-23.858-31.483l-4.061,1.976
						c0.304,0.626,7.652,15.539,24.586,32.561c15.605,15.687,42.626,36.096,82.731,44.246c1.04,0.211,2.077,0.314,3.099,0.314
						c5.991,0,11.44-3.513,13.616-9.104c0.125-0.32,0.243-0.652,0.353-0.996l3.293-17.643L315.267,423.556z"/>
				</g>
			</g>
			<g>
				<g>
					<path style="fill:#EAB2C7;" d="M115.686,125.022c0,0-54.431-10.263-91.208,28.201c0,0-3.433,36.197,23.047,62.094
						c0,0,15.692-54.909,66.199-75.312L115.686,125.022z"/>
					<path style="fill:none;stroke:#532418;stroke-width:2;stroke-miterlimit:10;" d="M113.725,140.006
						c0,0-44.687,13.698-66.199,75.312"/>
					<path style="fill:none;stroke:#F0C8D9;stroke-miterlimit:10;" d="M132.296,135.418c-66.454-5.746-90.605,61.595-90.605,61.595"
						/>
					<path style="fill:none;stroke:#F0C8D9;stroke-miterlimit:10;" d="M39.887,168.792c0,0,34.404-44.612,86.191-36.12"/>
					<path style="fill:none;stroke:#F0C8D9;stroke-miterlimit:10;" d="M45.227,144.89c0,0,37.03-26.829,103.405-14.363"/>
				</g>
				<g>
					<g>
						<defs>
							<path id="XMLID_10_" d="M320.082,82.14c0,0-8.289-19.689-37.93-11.926c0,0-17.005-12.703-43.084,1.411
								c0,0-19.193-10.586-34.634,4.94c0,0-30.967-5.646-49.316,19.055c0,0-15.526-3.529-24.701,12.703
								c0,0-14.821,1.411-19.055,26.818c0,0-0.955,20.076,8.229,27.423c0,0-1.378,14.695,12.858,22.501
								c0,0-6.429,24.373,13.776,31.702c0,0-5.97,18.81,15.154,28.453c0,0,2.755,36.649,40.869,27.049l55.564-105.166L320.082,82.14
								z"/>
						</defs>
						<use xlink:href="#XMLID_10_"  style="overflow:visible;fill:#EAAB47;"/>
						<clipPath id="XMLID_00000143587689841005555550000005992010244455037099_">
							<use xlink:href="#XMLID_10_"  style="overflow:visible;"/>
						</clipPath>
						<polygon style="clip-path:url(#XMLID_00000143587689841005555550000005992010244455037099_);fill:#DB9435;" points="
							118.673,99.159 255.004,225.74 190.152,316.671 115.686,311.689 70.01,188.809 						"/>
						<path style="clip-path:url(#XMLID_00000143587689841005555550000005992010244455037099_);fill:#DB9435;" d="M143.201,119.004
							c0,0,10.956,6.43,26.952,5.265l-7.59,22.398l-19.363-9.249V119.004z"/>
						<path style="clip-path:url(#XMLID_00000143587689841005555550000005992010244455037099_);fill:#DB9435;" d="M130.418,87.095
							c0,0-0.188,28.419,15.808,27.254l-2.35,13.63l-19.362-9.249L130.418,87.095z"/>
						<path style="clip-path:url(#XMLID_00000143587689841005555550000005992010244455037099_);fill:#DB9435;" d="M164.371,127.854
							c0,0,9.842,17.016,25.215,15.462l-5.852,18.847l-19.363-9.249V127.854z"/>
						<path style="clip-path:url(#XMLID_00000143587689841005555550000005992010244455037099_);fill:#DB9435;" d="M188.105,147.071
							c0,0,10.363,9.633,26.253,15.3l-9.574,23.32l-27.54-12.417L188.105,147.071z"/>
						<path style="clip-path:url(#XMLID_00000143587689841005555550000005992010244455037099_);fill:#DB9435;" d="M214.359,162.371
							c0,0,4.852,16.067,26.527,15.165L230.8,203.323l-26.933-12.116L214.359,162.371z"/>
						<path style="clip-path:url(#XMLID_00000143587689841005555550000005992010244455037099_);fill:#F1CB4E;" d="M331.143,66.658
							l-10.05,22.944l-15.222,6.019l-7.493,7.037c0,0-17.505-22.479-33.795-18l-10.747,8.353c0,0-10.174-15.459-28.315-9.251
							l-7.949,8.363c0,0-14.696-13.26-26.365-5.48l-5.052,6.352l-31.039-8.338l9.078-23.126l62.014-22.479l77.091,1.577
							L331.143,66.658z"/>
					</g>
					<path style="fill:#F5E5DC;" d="M292.319,100.33c-11.994-13.8-34.699-11.547-34.894-11.522l8.885-9.321
						c1.016-0.169,18.308-4.697,34.268,13.664L292.319,100.33z"/>
					<path style="fill:#F5E5DC;" d="M267.875,129.361c-11.883-13.678-31.794-11.578-32.572-11.454l6.276-10.628
						c1.016-0.177,19.362-4.037,33.785,12.372L267.875,129.361z"/>
					<path style="fill:#F5E5DC;" d="M247.619,162.163c-11.779-8.818-29.878-8.248-30.045-8.236l3.929-10.575
						c0.842-0.058,18.855-0.921,33.944,10.378L247.619,162.163z"/>
					<path style="fill:#F5E5DC;" d="M230.65,202.079c-11.927-8.376-27.511-8.513-27.601-8.487l4.518-13.178
						c0.503-0.079,14.055-0.001,27.803,8.488L230.65,202.079z"/>
					<path style="fill:#F5E5DC;" d="M250.674,96.665c-12.833-10.297-29.817-9.075-30.008-9.027l9.056-9.462
						c0.99-0.286,14.009-3.889,29.199,9.483L250.674,96.665z"/>
					<path style="fill:#F5E5DC;" d="M230.657,127.433c-13.395-12.201-29.674-7.985-30.433-7.771l5.346-11.973
						c0.988-0.295,15.158-5.39,31.394,9.228L230.657,127.433z"/>
					<path style="fill:#F5E5DC;" d="M214.359,162.371c-12.725-7.386-30.636-4.712-30.799-4.681l4.546-10.619
						c0.83-0.156,13.167-4.369,29.469,5.095L214.359,162.371z"/>
					<path style="fill:#F5E5DC;" d="M200.857,203.323c-12.821-6.93-30.842-5.799-28.973-5.173l4.822-12.988
						c0.491-0.137,13.959-1.638,28.602,5.192L200.857,203.323z"/>
					<path style="fill:#F5E5DC;" d="M194.471,239.16c-12.821-6.93-32.016-6.009-30.147-5.383l2.739-13.36
						c0.491-0.137,13.959-1.638,28.602,5.192L194.471,239.16z"/>
					<path style="fill:none;stroke:#DF6645;stroke-width:2.1885;stroke-miterlimit:10;" d="M282.152,70.214
						c-6.103,0.943-66.444,38.11-86.863,161.239"/>
					<path style="fill:#F5E5DC;" d="M214.539,95.62c-10.491-8.175-28.191-2.675-28.381-2.625l7.605-10.392
						c0.986-0.299,15.793-5.078,28.174,4.492L214.539,95.62z"/>
					<path style="fill:#F5E5DC;" d="M196.016,128.351c-11.939-8.076-25.107-4.306-25.863-4.082l5.177-11.486
						c0.984-0.308,13.5-4.786,26.04,4.649L196.016,128.351z"/>
					<path style="fill:#F5E5DC;" d="M181.583,164.936c-8.707-4.34-23.382-2.598-23.545-2.565l2.633-11.051
						c0.828-0.166,11.974-3.649,24.762,2.867L181.583,164.936z"/>
					<path style="fill:#F5E5DC;" d="M169.571,207.3c-12.91-6.763-20.853-3.622-20.939-3.584l2.783-13.685
						c0.489-0.143,6.769-2.418,21.5,4.221L169.571,207.3z"/>
					<path style="fill:none;stroke:#DF6645;stroke-width:2.1885;stroke-miterlimit:10;" d="M239.068,71.625
						c0,0-48.337,19.075-77.689,173.597"/>
					<path style="fill:#F5E5DC;" d="M184.433,96.8c-14.254-8.219-27.034-3.886-27.215-3.809c0,0,5.704-7.52,12.936-10.543
						c0.951-0.397,10.867-2.145,21.056,4.195L184.433,96.8z"/>
					<path style="fill:#F5E5DC;" d="M168.594,129.857c-14.224-7.92-28.356-3.518-29.072-3.191l4.188-13.032
						c0.931-0.442,17.67-5.31,29.187,5.085L168.594,129.857z"/>
					<path style="fill:#F5E5DC;" d="M156.364,168.792c-10.677-3.459-19.063-3.021-24.068-1.553l1.062-12.253
						c0.797-0.28,14.004-4.743,26.828,1.715L156.364,168.792z"/>
					<path style="fill:#F5E5DC;" d="M131.486,194.126c0,0,8.374-4.271,19.067,0l-1.921,14.964c0,0-6.795-2.391-12.815,0
						C135.817,209.09,130.523,203.185,131.486,194.126z"/>
					<path style="fill:none;stroke:#DF6645;stroke-width:2.1885;stroke-miterlimit:10;" d="M204.435,76.565
						c0,0-34.611,6.079-58.209,140.203"/>
					<path style="fill:#F5E5DC;" d="M124.321,118.154c0,0,7.879-3.765,18.881,0.85l-5.424,15.668c0,0-10.283-4.877-18.36-0.937
						L124.321,118.154z"/>
					<path style="fill:#F5E5DC;" d="M133.484,158.424c-4.664-5.2-14.81-2.491-14.81-2.491s-0.138,12.141,2.897,17.341
						c0,0,6.439-1.951,10.725,0L133.484,158.424z"/>
					<path style="fill:none;stroke:#DF6645;stroke-width:2.1885;stroke-miterlimit:10;" d="M130.418,108.324
						c0,0-13.056,10.884-11.744,53.839"/>
					<path style="fill:none;stroke:#DF6645;stroke-width:2.1885;stroke-miterlimit:10;" d="M155.119,95.62
						c0,0-20.661,18.984-23.835,88.771"/>
				</g>
			</g>
			<g>
				<g>
					<path style="fill:#D39E91;" d="M238.173,284.35l-16.55-59.179c0,0-24.146-23.597-39.091,2.244
						c-11.751,20.319,6.148,59.743,35.775,62.903c0.84,4.94,5.113,8.71,10.292,8.71c5.782,0,10.469-4.687,10.469-10.469
						C239.068,287.059,238.741,285.639,238.173,284.35z"/>
					
						<linearGradient id="SVGID_00000120540458587938618710000015856699724475152056_" gradientUnits="userSpaceOnUse" x1="198.3241" y1="230.9044" x2="224.4705" y2="276.1915">
						<stop  offset="0" style="stop-color:#C3867D"/>
						<stop  offset="1" style="stop-color:#BB8179;stop-opacity:0"/>
					</linearGradient>
					<path style="fill:url(#SVGID_00000120540458587938618710000015856699724475152056_);" d="M226.545,242.771
						c0,0-13.998-21.574-29.068-11.318c-12.911,8.787-6.534,36.521,12.713,45.019c19.246,8.498,21.435-15.539,21.435-15.539
						L226.545,242.771z"/>
				</g>
				<path style="fill:#EAAB47;" d="M220.869,349.449c-16.932-1.074-30.45-15.286-30.713-32.25
					c-0.199-12.828,6.155-24.002,17.636-29.653l2.493,0.968c-11.173,5.497-18.725,17.527-17.957,30.103
					c0.933,15.287,13.337,27.718,28.62,28.717c17.868,1.168,32.783-13.04,32.783-30.663c0-14.662-10.228-27.155-24.467-30.093
					c-0.563-0.116-0.939-0.644-0.842-1.21l0,0c0.101-0.586,0.668-0.986,1.25-0.867c15.232,3.131,26.174,16.492,26.174,32.17
					C255.846,335.489,239.943,350.659,220.869,349.449z"/>
				<g>
					<path style="fill:#FFFFFF;" d="M221.937,348.46c0,3.44-2.789,6.229-6.229,6.229c-3.44,0-6.229-2.789-6.229-6.229
						c0-3.44,2.789-6.229,6.229-6.229C219.148,342.23,221.937,345.019,221.937,348.46z"/>
					<path style="fill:#FFFFFF;" d="M234.081,348.46c0,3.44-2.789,6.229-6.229,6.229c-3.44,0-6.229-2.789-6.229-6.229
						c0-3.44,2.789-6.229,6.229-6.229C231.292,342.23,234.081,345.019,234.081,348.46z"/>
				</g>
			</g>
			<g>
				<g>
					<path style="fill:#532418;" d="M373.648,211.236c0,0,8.613,4.65,14.926-0.535c0,0-2.43,7.413-10.538,7.01L373.648,211.236z"/>
					<g>
						<g>
							<defs>
								<path id="XMLID_9_" d="M406.591,257.162c-8.731-18.585-28.569-44.001-28.569-44.001l12.646-15.175
									c2.361-2.832,3.099-6.68,1.954-10.185l-10.998-33.682c-8.077-24.736-37.131-35.588-59.338-22.025
									c-11.948,7.297-31.597,21.373-45.74,35.011l-54.608,57.23l16.236,60.014l69.371,53.801l36.612,5.875l34.224-21.549
									l-0.019-5.835l8.291-4.14c2.153-1.075,3.308-3.468,2.81-5.822l-1.617-7.653l4.016-7.441l-12.352-6.505l-1.25,0.623
									l-0.05-15.399l15.58,1.517c3.208,0.566,6.508-0.213,9.124-2.154C407.442,266.308,408.989,262.267,406.591,257.162z"/>
							</defs>
							<use xlink:href="#XMLID_9_"  style="overflow:visible;fill:#D39E91;"/>
							<clipPath id="XMLID_00000142854942183391630440000013207072369303474821_">
								<use xlink:href="#XMLID_9_"  style="overflow:visible;"/>
							</clipPath>
							<path style="clip-path:url(#XMLID_00000142854942183391630440000013207072369303474821_);fill:#EEBDB6;" d="M314.825,135.293
								c0,0,28.175-6.871,47.414,11.59c4.912,4.713,8.383,10.727,10.555,17.178l19.076,50.152l29.611-27.626l-45.646-77.79
								l-38.73,8.831L314.825,135.293z"/>
							<polygon style="clip-path:url(#XMLID_00000142854942183391630440000013207072369303474821_);fill:#EEBDB6;" points="
								393.203,171.749 373.071,214.214 390.322,217.727 395.858,199.002 							"/>
							<polygon style="clip-path:url(#XMLID_00000142854942183391630440000013207072369303474821_);fill:#EEBDB6;" points="
								373.071,214.214 409.373,273.687 413.839,259.266 384.667,212.719 							"/>
							<path style="clip-path:url(#XMLID_00000142854942183391630440000013207072369303474821_);fill:#EEBDB6;" d="M396.874,253.21
								c0,0,8.829,11.911-5.016,18.456l12.494,7.668l16.674-19.766l-2.565-12.704L396.874,253.21z"/>
						</g>
						
							<linearGradient id="SVGID_00000150786762009250426680000017386444087666067902_" gradientUnits="userSpaceOnUse" x1="232.7294" y1="198.9582" x2="311.0303" y2="334.5794">
							<stop  offset="0" style="stop-color:#C3867D"/>
							<stop  offset="0.3093" style="stop-color:#C3867D;stop-opacity:0.9612"/>
							<stop  offset="1" style="stop-color:#BB8179;stop-opacity:0"/>
						</linearGradient>
						<path style="fill:url(#SVGID_00000150786762009250426680000017386444087666067902_);" d="M231.625,199.596
							c0,0,87.474,55.606,94.201,126.441l-49.281,2.268L231.625,199.596z"/>
						
							<linearGradient id="SVGID_00000048493604622026885780000008322154721985526697_" gradientUnits="userSpaceOnUse" x1="331.1433" y1="188.8085" x2="331.1433" y2="249.499">
							<stop  offset="0" style="stop-color:#C3867D"/>
							<stop  offset="1" style="stop-color:#BB8179;stop-opacity:0"/>
						</linearGradient>
						<path style="fill:url(#SVGID_00000048493604622026885780000008322154721985526697_);" d="M364.223,192.765
							c0,0,21.972,44.4-28.883,55.444c-43.014,9.341-41.995-35.096-41.995-35.096s12.155-0.121,25.368-6.316
							c16.627-7.795,19.246-17.989,19.246-17.989L364.223,192.765z"/>
						
							<linearGradient id="SVGID_00000065781246133135501870000000379461533965497020_" gradientUnits="userSpaceOnUse" x1="358.7433" y1="253.2831" x2="358.7433" y2="294.3492">
							<stop  offset="0.1173" style="stop-color:#C3867D"/>
							<stop  offset="0.302" style="stop-color:#C0847C;stop-opacity:0.7908"/>
							<stop  offset="1" style="stop-color:#BB8179;stop-opacity:0"/>
						</linearGradient>
						<path style="fill:url(#SVGID_00000065781246133135501870000000379461533965497020_);" d="M367.977,269.31l-0.395-1.249
							c-2.017-6.374,1.765-13.128,8.254-14.739h0c0,0-26.949-2.871-34.184,41.028L367.977,269.31z"/>
						<g>
							<defs>
								<path id="XMLID_6_" d="M387.845,299.028H356.85l12.41,15.32l13.15,0.273l2.713-0.781c4.025-1.159,6.209-5.502,4.74-9.425
									L387.845,299.028z"/>
							</defs>
							<use xlink:href="#XMLID_6_"  style="overflow:visible;fill:#C87369;"/>
							<clipPath id="XMLID_00000083783106819869213100000008490875827790826907_">
								<use xlink:href="#XMLID_6_"  style="overflow:visible;"/>
							</clipPath>
							<path style="clip-path:url(#XMLID_00000083783106819869213100000008490875827790826907_);fill:#E28C89;" d="M377.852,295.073
								c0,0,13.569,15.536,0.509,21.57l15.716,0.027l2.352-18.961L377.852,295.073z"/>
						</g>
						<path style="fill:#EEBDB6;" d="M367.977,269.31c0,0-2.765-6.418,1.703-12.095c3.907-4.964,10.454-5.673,18.895-1.92
							C388.574,255.295,377.852,256.196,367.977,269.31z"/>
						<polygon style="fill:#EEBDB6;" points="391.861,291.587 387.845,299.028 380.705,299.028 382.41,284.247 						"/>
					</g>
				</g>
				<g>
					<path style="fill:#532418;" d="M393.789,271.822l1.972,11.315c0.325,1.867-0.166,3.783-1.35,5.263l-2.549,3.186
						c0,0-16.026-3.935-35.011,7.441c-21.313,12.771-32.783,4.749-36.768-5.214c0,0,14.851,11.67,25.098-3.7
						c10.247-15.371,22.797-20.804,22.797-20.804L393.789,271.822z"/>
					<g>
						<g>
							<path style="fill:#532418;" d="M270.659,173.274"/>
							<path style="fill:#532418;" d="M382.41,314.621l-4.05,2.022l-3.784,5.599c-2.282,3.376-5.402,5.984-8.964,7.641
								c-6.779,3.152-14.781-1.589-15.57-9.023c-1.876-17.658,16.356-32.871,16.356-32.871l-10.922,4.989
								c-8.475,18.069-22.895,28.79-29.651,33.061c-6.832-2.436-13.402-5.609-19.573-9.51
								c-17.738-11.212-29.618-29.697-32.966-50.413l-6.374-39.438c-4.248-28.224-2.693-44.898,3.747-53.403l-49.036,51.897
								l16.55,59.179c20.767,93.088,175.666,99.824,175.666,99.824C412.178,353.219,382.41,314.621,382.41,314.621z"/>
						</g>
						<polygon style="fill:#532418;" points="382.41,314.621 369.261,314.348 379.735,328.305 						"/>
					</g>
					<path style="fill:#532418;" d="M344.574,372.407l-66.252-20.878c-14.844-4.678-26.303-16.563-30.437-31.568l-16.261-59.028
						L344.574,372.407z"/>
					<path style="fill:#532418;" d="M257.83,191.207c0,0,41.614-1.962,39.074-46.337L257.83,191.207z"/>
				</g>
				<g>
					<path style="fill:#532418;" d="M389.382,195.568l-6.057,11.229c0,0,14.501-6.8,9.822-15.59L389.382,195.568z"/>
					<g>
						<path style="fill:#E5B4AB;" d="M320.082,223.809c0,0,14.38,13.936,26.585,9.289l4.182-7.357L320.082,223.809z"/>
						<path style="fill:#E5B4AB;" d="M352.123,209.09c0,0-5.769-5.396-14.164-1.401c-10.234,4.87-14.659,14.641-14.659,14.641
							L352.123,209.09z"/>
						<g>
							<path style="fill:#532418;" d="M293.345,213.113c0,0,14.911-21.845,35.067-28.141c16.206-5.062,35.811,7.793,35.811,7.793
								l-7.62,8.679c0,0-9.805-10.709-28.84-7.621C310.181,196.675,293.345,213.113,293.345,213.113z"/>
							<g>
								<g>
									<path style="fill:#532418;" d="M349.726,217.727l4.404-1.277c1.842-3.274,0.344-9.257-3.282-10.24
										c-5.233-1.419-15.067-1.929-29.85,8.004c0,0,20.309-11.625,29.443-5.077l1.075,2.362l-4.935,5.895L349.726,217.727z"/>
								</g>
								<polygon style="fill:#532418;" points="326.619,219.659 309.334,224.104 320.088,225.002 326.619,223.486 								"/>
								<path style="fill:#532418;" d="M350.848,225.74l1.855,1.714c0,0-13.231,6.737-34.726-3.073L350.848,225.74z"/>
								<path style="fill:#532418;" d="M350.848,213.19l3.282-3.956c0,0-14.241-2.622-34.048,14.575L350.848,213.19z"/>
								<path id="XMLID_4_" style="fill:#FFFFFF;" d="M320.999,224.382c0,0,19.022-13.406,29.85-11.191v12.55
									C350.848,225.74,342.363,230.771,320.999,224.382z"/>
								<path style="fill:#532418;" d="M353.512,226.199c0,0-1.757,7.761-16.675,10.966c0,0,8.659-2.674,14.012-11.425
									L353.512,226.199z"/>
								<g>
									<path style="fill:#532418;" d="M354.13,211.518c-2.281-0.466-7.422,0.812-10.157,1.394
										c-1.459,2.093-2.321,4.633-2.321,7.378c0,2.913,0.975,5.591,2.601,7.752c5.091-0.508,9.259-1.843,9.259-1.843
										L354.13,211.518z"/>
								</g>
								<path style="fill:#532418;" d="M346.667,209.965c0,0,8.613,4.65,14.926-0.535c0,0-2.43,7.413-10.538,7.01L346.667,209.965z"
									/>
							</g>
						</g>
					</g>
					<g>
						<path style="fill:#C87369;" d="M381.672,189.152c-2.754,0-5.047-1.767-5.553-4.994c-0.068,0.435-0.106,0.883-0.106,1.342
							c0,3.87,2.534,7.007,5.659,7.007c3.125,0,5.659-3.137,5.659-7.007c0-0.459-0.038-0.907-0.106-1.342
							C386.718,187.385,384.426,189.152,381.672,189.152z"/>
					</g>
				</g>
			</g>
			<g>
				<g>
					<defs>
						<path id="XMLID_2_" d="M378.72,147.359c0,0-10.285-19.616-36.606-15.368c-20.611,3.326-33.727,12.696-48.744,24.654
							c-8.259,6.577-16.018,13.75-23.198,21.49c-13.318,14.357-36.459,38.52-48.235,46.201l0,0c0,0,41.353-124.677,98.145-142.196
							c0,0,29.416-10.213,38.909,17.521C358.991,99.66,399.544,109.839,378.72,147.359z"/>
					</defs>
					<use xlink:href="#XMLID_2_"  style="overflow:visible;fill:#EAAB47;"/>
					<clipPath id="XMLID_00000046298042779651008860000018260521419142572957_">
						<use xlink:href="#XMLID_2_"  style="overflow:visible;"/>
					</clipPath>
					<path style="clip-path:url(#XMLID_00000046298042779651008860000018260521419142572957_);fill:#DB9435;" d="M241.194,176.875
						c0,0,19.994,17.249,30.893,10.886l-33.366,39.86l-32.865,9.543l-0.548-33.842L241.194,176.875"/>
					<path style="clip-path:url(#XMLID_00000046298042779651008860000018260521419142572957_);fill:#F1CB4E;" d="M300.579,93.151
						c0,0,20.044-5.727,34.283,15.173c0,0,23.906-6.593,26.731,29.094l23.074,24.745l23.046-18.847l-19.012-56.221l-44.127-27.003
						L300.579,93.151z"/>
				</g>
				<path style="fill:#F5E5DC;" d="M357.164,132.178c-2.362-18.341-21.597-23.622-22.303-23.854l9.518-5.667
					c0.919,0.295,22.337,5.556,22.337,33.101L357.164,132.178z"/>
				<path style="fill:#F5E5DC;" d="M318.445,139.606c-4.929-5.697-10.587-6.847-10.984-6.978l7.44-7.606
					c0.597,0.192,7.859,1.094,15.171,9.82L318.445,139.606z"/>
				<path style="fill:#F5E5DC;" d="M330.528,110.873c-10.611-14.89-33.427-14.831-33.624-14.824l9.741-8.423
					c1.028-0.071,18.675-2.914,32.795,16.896L330.528,110.873z"/>
				<path style="fill:#F5E5DC;" d="M303.405,137.418c-10.513-14.757-30.533-14.582-31.319-14.533l7.269-9.975
					c1.028-0.079,17.415-3.568,31.533,16.241L303.405,137.418z"/>
				<path style="fill:#F5E5DC;" d="M280.089,168.121c-10.876-9.91-28.947-11.083-29.113-11.087l4.928-10.148
					c0.844,0.023,18.856,0.897,32.788,13.594L280.089,168.121z"/>
				<path style="fill:#F5E5DC;" d="M252.185,197.014c-9.179-4.783-18.18-4.291-18.272-4.274l4.556-10.305
					c0.509-0.03,10.079-0.312,22.079,5.935L252.185,197.014z"/>
				<path style="fill:none;stroke:#DF6645;stroke-width:2.1885;stroke-miterlimit:10;" d="M358.991,99.66
					c0,0-32.315-1.17-71.874,61.735"/>
				<path style="fill:none;stroke:#DF6645;stroke-width:2.1885;stroke-miterlimit:10;" d="M320.082,82.14
					c0,0-49.229,5.359-98.459,143.031"/>
			</g>
		</g>
	</g>
</g>
</svg>
