<svg width="1286" height="1167" viewBox="0 0 1286 1167" fill="none" xmlns="http://www.w3.org/2000/svg">
<circle cx="643" cy="615" r="425" fill="#E4E4F9"/>
<path d="M407.5 879.5L409.5 426L510 325.5L824.5 324L848 340.5V883L826.5 906.5H429L412 897L407.5 879.5Z" fill="#FEFDEF"/>
<path d="M509 425.5V328.5L411 425.5H509Z" fill="#FEF6AA"/>
<path d="M454.5 690.5V526H801V690.5H454.5Z" fill="#C4E7ED"/>
<path d="M363.859 857.922C362.43 857.922 361.059 857.354 360.048 856.343C359.037 855.332 358.469 853.961 358.469 852.531V841.75C358.469 840.32 359.037 838.949 360.048 837.938C361.059 836.927 362.43 836.359 363.859 836.359C365.289 836.359 366.66 836.927 367.671 837.938C368.682 838.949 369.25 840.32 369.25 841.75V852.531C369.25 853.961 368.682 855.332 367.671 856.343C366.66 857.354 365.289 857.922 363.859 857.922ZM363.859 825.578C362.43 825.578 361.059 825.01 360.048 823.999C359.037 822.988 358.469 821.617 358.469 820.188V669.25C358.469 667.82 359.037 666.449 360.048 665.438C361.059 664.427 362.43 663.859 363.859 663.859C365.289 663.859 366.66 664.427 367.671 665.438C368.682 666.449 369.25 667.82 369.25 669.25V820.188C369.25 821.617 368.682 822.988 367.671 823.999C366.66 825.01 365.289 825.578 363.859 825.578ZM892.141 469.797C890.711 469.797 889.34 469.229 888.329 468.218C887.318 467.207 886.75 465.836 886.75 464.406V453.625C886.75 452.195 887.318 450.824 888.329 449.813C889.34 448.802 890.711 448.234 892.141 448.234C893.57 448.234 894.941 448.802 895.952 449.813C896.963 450.824 897.531 452.195 897.531 453.625V464.406C897.531 465.836 896.963 467.207 895.952 468.218C894.941 469.229 893.57 469.797 892.141 469.797ZM892.141 642.297C890.711 642.297 889.34 641.729 888.329 640.718C887.318 639.707 886.75 638.336 886.75 636.906V485.969C886.75 484.539 887.318 483.168 888.329 482.157C889.34 481.146 890.711 480.578 892.141 480.578C893.57 480.578 894.941 481.146 895.952 482.157C896.963 483.168 897.531 484.539 897.531 485.969V636.906C897.531 638.336 896.963 639.707 895.952 640.718C894.941 641.729 893.57 642.297 892.141 642.297ZM509.406 432.063H406.984C405.917 432.064 404.873 431.749 403.984 431.157C403.096 430.565 402.404 429.722 401.995 428.736C401.586 427.75 401.479 426.665 401.688 425.618C401.897 424.571 402.412 423.609 403.168 422.855L505.59 320.433C505.591 319.548 505.811 318.676 506.23 317.895C506.648 317.115 507.253 316.449 507.99 315.958C508.727 315.467 509.574 315.164 510.455 315.078C511.337 314.992 512.226 315.124 513.045 315.463C513.863 315.803 514.585 316.338 515.147 317.023C515.709 317.707 516.094 318.52 516.267 319.389C516.44 320.257 516.397 321.155 516.14 322.003C515.884 322.851 515.422 323.623 514.797 324.25V426.672C514.797 428.102 514.229 429.473 513.218 430.484C512.207 431.495 510.836 432.063 509.406 432.063ZM419.997 421.281H504.016V337.263L419.997 421.281Z" fill="#1F212B"/>
<path d="M822.062 911.828H433.938C416.105 911.828 401.594 897.317 401.594 879.484V426.672C401.594 425.238 402.165 423.869 403.168 422.855L505.59 320.433C506.605 319.427 507.977 318.862 509.406 318.859H822.062C839.895 318.859 854.406 333.371 854.406 351.203V879.484C854.406 897.317 839.895 911.828 822.062 911.828ZM412.375 428.904V879.484C412.375 891.376 422.046 901.047 433.938 901.047H822.062C833.954 901.047 843.625 891.376 843.625 879.484V351.203C843.625 339.311 833.954 329.641 822.062 329.641H511.638L412.375 428.904ZM460.891 286.516H417.766C416.336 286.516 414.965 285.948 413.954 284.937C412.943 283.926 412.375 282.555 412.375 281.125C412.375 279.695 412.943 278.324 413.954 277.313C414.965 276.302 416.336 275.734 417.766 275.734H460.891C462.32 275.734 463.691 276.302 464.702 277.313C465.713 278.324 466.281 279.695 466.281 281.125C466.281 282.555 465.713 283.926 464.702 284.937C463.691 285.948 462.32 286.516 460.891 286.516Z" fill="#1F212B"/>
<path d="M439.328 308.078C437.898 308.078 436.527 307.51 435.516 306.499C434.505 305.488 433.938 304.117 433.938 302.688V259.562C433.938 258.133 434.505 256.762 435.516 255.751C436.527 254.74 437.898 254.172 439.328 254.172C440.758 254.172 442.129 254.74 443.14 255.751C444.151 256.762 444.719 258.133 444.719 259.562V302.688C444.719 304.117 444.151 305.488 443.14 306.499C442.129 307.51 440.758 308.078 439.328 308.078ZM406.984 345.812H363.859C362.43 345.812 361.059 345.245 360.048 344.234C359.037 343.223 358.469 341.852 358.469 340.422C358.469 338.992 359.037 337.621 360.048 336.61C361.059 335.599 362.43 335.031 363.859 335.031H406.984C408.414 335.031 409.785 335.599 410.796 336.61C411.807 337.621 412.375 338.992 412.375 340.422C412.375 341.852 411.807 343.223 410.796 344.234C409.785 345.245 408.414 345.812 406.984 345.812Z" fill="#1F212B"/>
<path d="M385.422 367.375C383.992 367.375 382.621 366.807 381.61 365.796C380.599 364.785 380.031 363.414 380.031 361.984V318.859C380.031 317.43 380.599 316.059 381.61 315.048C382.621 314.037 383.992 313.469 385.422 313.469C386.852 313.469 388.223 314.037 389.234 315.048C390.245 316.059 390.812 317.43 390.812 318.859V361.984C390.812 363.414 390.245 364.785 389.234 365.796C388.223 366.807 386.852 367.375 385.422 367.375ZM816.672 415.891C815.242 415.891 813.871 415.323 812.86 414.312C811.849 413.301 811.281 411.93 811.281 410.5V367.375C811.281 365.945 810.713 364.574 809.702 363.563C808.691 362.552 807.32 361.984 805.891 361.984H762.766C761.336 361.984 759.965 361.416 758.954 360.406C757.943 359.395 757.375 358.023 757.375 356.594C757.375 355.164 757.943 353.793 758.954 352.782C759.965 351.771 761.336 351.203 762.766 351.203H805.891C814.807 351.203 822.062 358.459 822.062 367.375V410.5C822.062 411.93 821.495 413.301 820.484 414.312C819.473 415.323 818.102 415.891 816.672 415.891ZM805.891 701.594H450.109C448.68 701.594 447.309 701.026 446.298 700.015C445.287 699.004 444.719 697.633 444.719 696.203V480.578C444.719 479.148 445.287 477.777 446.298 476.766C447.309 475.755 448.68 475.188 450.109 475.188H805.891C807.32 475.188 808.691 475.755 809.702 476.766C810.713 477.777 811.281 479.148 811.281 480.578V696.203C811.281 697.633 810.713 699.004 809.702 700.015C808.691 701.026 807.32 701.594 805.891 701.594ZM455.5 690.812H800.5V485.969H455.5V690.812Z" fill="#1F212B"/>
<path d="M450.109 480.578H805.891V523.703H450.109V480.578Z" fill="#C4E7ED"/>
<path d="M805.891 529.094H450.109C448.68 529.094 447.309 528.526 446.298 527.515C445.287 526.504 444.719 525.133 444.719 523.703V480.578C444.719 479.148 445.287 477.777 446.298 476.766C447.309 475.755 448.68 475.188 450.109 475.188H805.891C807.32 475.188 808.691 475.755 809.702 476.766C810.713 477.777 811.281 479.148 811.281 480.578V523.703C811.281 525.133 810.713 526.504 809.702 527.515C808.691 528.526 807.32 529.094 805.891 529.094ZM455.5 518.312H800.5V485.969H455.5V518.312Z" fill="#1F212B"/>
<path d="M644.172 701.594C642.742 701.594 641.371 701.026 640.36 700.015C639.349 699.004 638.781 697.633 638.781 696.203V480.578C638.781 479.148 639.349 477.777 640.36 476.766C641.371 475.755 642.742 475.188 644.172 475.188C645.602 475.188 646.973 475.755 647.984 476.766C648.995 477.777 649.562 479.148 649.562 480.578V696.203C649.562 697.633 648.995 699.004 647.984 700.015C646.973 701.026 645.602 701.594 644.172 701.594ZM698.078 701.594C696.648 701.594 695.277 701.026 694.266 700.015C693.255 699.004 692.688 697.633 692.688 696.203V480.578C692.688 479.148 693.255 477.777 694.266 476.766C695.277 475.755 696.648 475.188 698.078 475.188C699.508 475.188 700.879 475.755 701.89 476.766C702.901 477.777 703.469 479.148 703.469 480.578V696.203C703.469 697.633 702.901 699.004 701.89 700.015C700.879 701.026 699.508 701.594 698.078 701.594Z" fill="#1F212B"/>
<path d="M698.078 696.203H805.891V739.328H698.078V696.203Z" fill="#C4E7ED"/>
<path d="M805.891 744.719H698.078C696.648 744.719 695.277 744.151 694.266 743.14C693.255 742.129 692.688 740.758 692.688 739.328V696.203C692.688 694.773 693.255 693.402 694.266 692.391C695.277 691.38 696.648 690.812 698.078 690.812H805.891C807.32 690.812 808.691 691.38 809.702 692.391C810.713 693.402 811.281 694.773 811.281 696.203V739.328C811.281 740.758 810.713 742.129 809.702 743.14C808.691 744.151 807.32 744.719 805.891 744.719ZM703.469 733.938H800.5V701.594H703.469V733.938ZM579.484 777.062H450.109C448.68 777.062 447.309 776.495 446.298 775.484C445.287 774.473 444.719 773.102 444.719 771.672C444.719 770.242 445.287 768.871 446.298 767.86C447.309 766.849 448.68 766.281 450.109 766.281H579.484C580.914 766.281 582.285 766.849 583.296 767.86C584.307 768.871 584.875 770.242 584.875 771.672C584.875 773.102 584.307 774.473 583.296 775.484C582.285 776.495 580.914 777.062 579.484 777.062Z" fill="#1F212B"/>
<path d="M514.797 809.406H450.109C448.68 809.406 447.309 808.838 446.298 807.827C445.287 806.816 444.719 805.445 444.719 804.016C444.719 802.586 445.287 801.215 446.298 800.204C447.309 799.193 448.68 798.625 450.109 798.625H514.797C516.227 798.625 517.598 799.193 518.609 800.204C519.62 801.215 520.188 802.586 520.188 804.016C520.188 805.445 519.62 806.816 518.609 807.827C517.598 808.838 516.227 809.406 514.797 809.406Z" fill="#1F212B"/>
<path d="M558 330V319H591V330H558Z" fill="#FEFDEF"/>
<g clip-path="url(#clip0_3_3)">
<path d="M611.912 328.717V393.159C611.912 401.054 608.776 408.625 603.194 414.207C597.611 419.789 590.04 422.926 582.146 422.926C574.251 422.926 566.68 419.789 561.098 414.207C555.515 408.625 552.379 401.054 552.379 393.159L552.379 333.065C552.374 327.797 554.463 322.743 558.184 319.015C561.906 315.287 566.956 313.19 572.223 313.186C577.491 313.181 582.545 315.269 586.273 318.991C590.001 322.712 592.098 327.762 592.103 333.03L592.033 393.194C592.033 395.826 590.987 398.349 589.127 400.21C587.266 402.071 584.742 403.116 582.111 403.116C579.479 403.116 576.955 402.071 575.095 400.21C573.234 398.349 572.188 395.826 572.188 393.194L572.223 333.696" stroke="#1F212B" stroke-width="11" stroke-linecap="round" stroke-linejoin="round"/>
</g>
<path d="M218.5 575.375L209.976 601.291C209.539 602.618 208.798 603.823 207.81 604.81C206.823 605.798 205.618 606.539 204.291 606.976L178.375 615.5L204.291 624.024C205.618 624.461 206.823 625.202 207.81 626.19C208.798 627.177 209.539 628.382 209.976 629.709L218.5 655.625L227.024 629.709C227.461 628.382 228.202 627.177 229.19 626.19C230.177 625.202 231.382 624.461 232.709 624.024L258.625 615.5L232.709 606.976C231.382 606.539 230.177 605.798 229.19 604.81C228.202 603.823 227.461 602.618 227.024 601.291L218.5 575.375Z" fill="#F1BC19" stroke="#F1BC19" stroke-width="8.91667" stroke-linecap="round" stroke-linejoin="round"/>
<path d="M187.292 575.375V593.208" stroke="#F1BC19" stroke-width="8.91667" stroke-linecap="round" stroke-linejoin="round"/>
<path d="M249.708 637.792V655.625" stroke="#F1BC19" stroke-width="8.91667" stroke-linecap="round" stroke-linejoin="round"/>
<path d="M178.375 584.292H196.208" stroke="#F1BC19" stroke-width="8.91667" stroke-linecap="round" stroke-linejoin="round"/>
<path d="M240.792 646.708H258.625" stroke="#F1BC19" stroke-width="8.91667" stroke-linecap="round" stroke-linejoin="round"/>
<path d="M1039 181L1032.31 201.345C1031.97 202.387 1031.38 203.333 1030.61 204.108C1029.83 204.883 1028.89 205.466 1027.85 205.808L1007.5 212.5L1027.85 219.192C1028.89 219.534 1029.83 220.117 1030.61 220.892C1031.38 221.667 1031.97 222.613 1032.31 223.655L1039 244L1045.69 223.655C1046.03 222.613 1046.62 221.667 1047.39 220.892C1048.17 220.117 1049.11 219.534 1050.15 219.192L1070.5 212.5L1050.15 205.808C1049.11 205.466 1048.17 204.883 1047.39 204.108C1046.62 203.333 1046.03 202.387 1045.69 201.345L1039 181Z" fill="#F1BC19" stroke="#F1BC19" stroke-width="7" stroke-linecap="round" stroke-linejoin="round"/>
<path d="M1014.5 181V195" stroke="#F1BC19" stroke-width="7" stroke-linecap="round" stroke-linejoin="round"/>
<path d="M1063.5 230V244" stroke="#F1BC19" stroke-width="7" stroke-linecap="round" stroke-linejoin="round"/>
<path d="M1007.5 188H1021.5" stroke="#F1BC19" stroke-width="7" stroke-linecap="round" stroke-linejoin="round"/>
<path d="M1056.5 237H1070.5" stroke="#F1BC19" stroke-width="7" stroke-linecap="round" stroke-linejoin="round"/>
<path d="M957.5 160.375L954.712 168.852C954.569 169.286 954.326 169.68 954.003 170.003C953.68 170.326 953.286 170.569 952.852 170.712L944.375 173.5L952.852 176.288C953.286 176.431 953.68 176.674 954.003 176.997C954.326 177.32 954.569 177.714 954.712 178.148L957.5 186.625L960.288 178.148C960.431 177.714 960.674 177.32 960.997 176.997C961.32 176.674 961.714 176.431 962.148 176.288L970.625 173.5L962.148 170.712C961.714 170.569 961.32 170.326 960.997 170.003C960.674 169.68 960.431 169.286 960.288 168.852L957.5 160.375Z" fill="#F1BC19" stroke="#F1BC19" stroke-width="2.91667" stroke-linecap="round" stroke-linejoin="round"/>
<path d="M947.292 160.375V166.208" stroke="#F1BC19" stroke-width="2.91667" stroke-linecap="round" stroke-linejoin="round"/>
<path d="M967.708 180.792V186.625" stroke="#F1BC19" stroke-width="2.91667" stroke-linecap="round" stroke-linejoin="round"/>
<path d="M944.375 163.292H950.208" stroke="#F1BC19" stroke-width="2.91667" stroke-linecap="round" stroke-linejoin="round"/>
<path d="M964.792 183.708H970.625" stroke="#F1BC19" stroke-width="2.91667" stroke-linecap="round" stroke-linejoin="round"/>
<path d="M975 404.75L969.423 421.705C969.138 422.572 968.653 423.361 968.007 424.007C967.361 424.653 966.572 425.138 965.705 425.423L948.75 431L965.705 436.577C966.572 436.862 967.361 437.347 968.007 437.993C968.653 438.639 969.138 439.428 969.423 440.295L975 457.25L980.577 440.295C980.862 439.428 981.347 438.639 981.993 437.993C982.639 437.347 983.428 436.862 984.295 436.577L1001.25 431L984.295 425.423C983.428 425.138 982.639 424.653 981.993 424.007C981.347 423.361 980.862 422.572 980.577 421.705L975 404.75Z" fill="white" stroke="white" stroke-width="5.83333" stroke-linecap="round" stroke-linejoin="round"/>
<path d="M954.583 404.75V416.417" stroke="white" stroke-width="5.83333" stroke-linecap="round" stroke-linejoin="round"/>
<path d="M995.417 445.583V457.25" stroke="white" stroke-width="5.83333" stroke-linecap="round" stroke-linejoin="round"/>
<path d="M948.75 410.583H960.417" stroke="white" stroke-width="5.83333" stroke-linecap="round" stroke-linejoin="round"/>
<path d="M989.583 451.417H1001.25" stroke="white" stroke-width="5.83333" stroke-linecap="round" stroke-linejoin="round"/>
<path d="M837 941.833C884.404 941.833 922.833 903.404 922.833 856C922.833 808.596 884.404 770.167 837 770.167C789.596 770.167 751.167 808.596 751.167 856C751.167 903.404 789.596 941.833 837 941.833Z" fill="#FEF6AA" stroke="#1F212B" stroke-width="11" stroke-linecap="round" stroke-linejoin="round"/>
<path d="M802.667 856H871.333" stroke="#1F212B" stroke-width="11" stroke-linecap="round" stroke-linejoin="round"/>
<path d="M837 821.667V890.333" stroke="#1F212B" stroke-width="11" stroke-linecap="round" stroke-linejoin="round"/>
<path d="M294 967L288.583 983.47C288.305 984.313 287.834 985.079 287.207 985.707C286.579 986.334 285.813 986.805 284.97 987.083L268.5 992.5L284.97 997.917C285.813 998.195 286.579 998.666 287.207 999.293C287.834 999.921 288.305 1000.69 288.583 1001.53L294 1018L299.417 1001.53C299.695 1000.69 300.166 999.921 300.793 999.293C301.421 998.666 302.187 998.195 303.03 997.917L319.5 992.5L303.03 987.083C302.187 986.805 301.421 986.334 300.793 985.707C300.166 985.079 299.695 984.313 299.417 983.47L294 967Z" fill="#8889B9" stroke="#8889B9" stroke-width="5.66667" stroke-linecap="round" stroke-linejoin="round"/>
<path d="M274.167 967V978.333" stroke="#8889B9" stroke-width="5.66667" stroke-linecap="round" stroke-linejoin="round"/>
<path d="M313.833 1006.67V1018" stroke="#8889B9" stroke-width="5.66667" stroke-linecap="round" stroke-linejoin="round"/>
<path d="M268.5 972.667H279.833" stroke="#8889B9" stroke-width="5.66667" stroke-linecap="round" stroke-linejoin="round"/>
<path d="M308.167 1012.33H319.5" stroke="#8889B9" stroke-width="5.66667" stroke-linecap="round" stroke-linejoin="round"/>
<path d="M1090 319.25L1085.7 332.329C1085.48 332.999 1085.1 333.607 1084.61 334.105C1084.11 334.604 1083.5 334.978 1082.83 335.198L1069.75 339.5L1082.83 343.802C1083.5 344.022 1084.11 344.396 1084.61 344.895C1085.1 345.393 1085.48 346.001 1085.7 346.671L1090 359.75L1094.3 346.671C1094.52 346.001 1094.9 345.393 1095.39 344.895C1095.89 344.396 1096.5 344.022 1097.17 343.802L1110.25 339.5L1097.17 335.198C1096.5 334.978 1095.89 334.604 1095.39 334.105C1094.9 333.607 1094.52 332.999 1094.3 332.329L1090 319.25Z" fill="#8889B9" stroke="#8889B9" stroke-width="4.5" stroke-linecap="round" stroke-linejoin="round"/>
<path d="M1074.25 319.25V328.25" stroke="#8889B9" stroke-width="4.5" stroke-linecap="round" stroke-linejoin="round"/>
<path d="M1105.75 350.75V359.75" stroke="#8889B9" stroke-width="4.5" stroke-linecap="round" stroke-linejoin="round"/>
<path d="M1069.75 323.75H1078.75" stroke="#8889B9" stroke-width="4.5" stroke-linecap="round" stroke-linejoin="round"/>
<path d="M1101.25 355.25H1110.25" stroke="#8889B9" stroke-width="4.5" stroke-linecap="round" stroke-linejoin="round"/>
<defs>
<clipPath id="clip0_3_3">
<rect width="119" height="119" fill="white" transform="translate(498 365.146) rotate(-45)"/>
</clipPath>
</defs>
</svg>
