<svg width="2074" height="1674" viewBox="0 0 2074 1674" fill="none" xmlns="http://www.w3.org/2000/svg">
<g clip-path="url(#clip0_30_698)">
<path d="M592.842 400.917H21.9402C10.9496 400.917 2.04004 409.826 2.04004 420.817V1268.86C2.04004 1279.85 10.9496 1288.76 21.9402 1288.76H592.842C603.833 1288.76 612.742 1279.85 612.742 1268.86V420.817C612.742 409.826 603.833 400.917 592.842 400.917Z" fill="white"/>
<path d="M592.551 1290.89H22.1899C16.2934 1290.85 10.6495 1288.49 6.49165 1284.31C2.33378 1280.13 -9.23595e-05 1274.47 2.74125e-09 1268.57V421.15C2.74119e-09 418.22 0.577186 415.318 1.69861 412.611C2.82004 409.904 4.46374 407.444 6.53587 405.372C8.60799 403.299 11.068 401.656 13.7753 400.534C16.4827 399.413 19.3844 398.836 22.3148 398.836H592.675C598.59 398.847 604.26 401.201 608.442 405.384C612.625 409.566 614.979 415.236 614.99 421.15V1268.57C614.985 1271.51 614.4 1274.42 613.269 1277.14C612.137 1279.85 610.482 1282.31 608.398 1284.38C606.314 1286.46 603.841 1288.1 601.122 1289.21C598.403 1290.33 595.49 1290.9 592.551 1290.89ZM22.1899 403.041C19.8172 403.046 17.4687 403.519 15.2786 404.432C13.0886 405.345 11.0998 406.68 9.42587 408.362C7.75193 410.044 6.4256 412.039 5.52263 414.233C4.61967 416.427 4.15774 418.778 4.16322 421.15V1268.57C4.15774 1270.95 4.62107 1273.3 5.52664 1275.5C6.4322 1277.7 7.76223 1279.69 9.44058 1281.38C11.1189 1283.06 13.1126 1284.39 15.3075 1285.3C17.5024 1286.21 19.8553 1286.68 22.2316 1286.68H592.592C597.388 1286.67 601.984 1284.76 605.371 1281.36C608.758 1277.97 610.661 1273.37 610.661 1268.57V421.15C610.661 416.355 608.758 411.755 605.371 408.36C601.984 404.964 597.388 403.052 592.592 403.041H22.1899Z" fill="#E0E0E0"/>
<path d="M569.611 1191.97H61.4492V1212.7H569.611V1191.97Z" fill="#E0E0E0"/>
<path d="M569.611 1222.9H61.4492V1243.64H569.611V1222.9Z" fill="#E0E0E0"/>
<path d="M569.611 755.416H61.4492V1123.15H569.611V755.416Z" fill="#F5F5F5"/>
<path d="M567.03 819.196C567.03 819.821 453.457 820.279 313.448 820.279C173.439 820.279 59.8252 819.821 59.8252 819.196C59.8252 818.572 173.356 818.072 313.448 818.072C453.541 818.072 567.03 818.572 567.03 819.196Z" fill="#263238"/>
<path d="M128.352 1123.15C127.728 1123.15 127.228 1041.35 127.228 940.471C127.228 839.596 127.728 757.789 128.352 757.789C128.977 757.789 129.435 839.554 129.435 940.471C129.435 1041.39 129.06 1123.15 128.352 1123.15Z" fill="#263238"/>
<path d="M356.913 1127.4C356.288 1127.4 355.789 1044.63 355.789 942.594C355.789 840.553 356.288 757.789 356.913 757.789C357.537 757.789 357.995 840.512 357.995 942.594C357.995 1044.68 357.495 1127.4 356.913 1127.4Z" fill="#263238"/>
<path d="M471.193 1127.4C470.568 1127.4 470.069 1044.63 470.069 942.594C470.069 840.553 470.568 757.789 471.193 757.789C471.817 757.789 472.275 840.512 472.275 942.594C472.275 1044.68 471.776 1127.4 471.193 1127.4Z" fill="#263238"/>
<path d="M108.827 779.396H79.2261V801.128H108.827V779.396Z" fill="#E0E0E0"/>
<path d="M108.827 856.957H79.2261V878.689H108.827V856.957Z" fill="#E0E0E0"/>
<path d="M108.827 906.124H79.2261V927.856H108.827V906.124Z" fill="#E0E0E0"/>
<path d="M108.827 949.13H79.2261V970.862H108.827V949.13Z" fill="#E0E0E0"/>
<path d="M445.131 779.396H382.308V801.128H445.131V779.396Z" fill="#E0E0E0"/>
<path d="M435.514 839.722H392.175V861.454H435.514V839.722Z" fill="#E0E0E0"/>
<path d="M435.514 905.666H392.175V927.398H435.514V905.666Z" fill="#E0E0E0"/>
<path d="M545.173 905.666H501.834V927.398H545.173V905.666Z" fill="#E0E0E0"/>
<path d="M435.514 949.505H392.175V971.237H435.514V949.505Z" fill="#E0E0E0"/>
<path d="M544.84 947.424H501.501V969.156H544.84V947.424Z" fill="#E0E0E0"/>
<path d="M544.84 841.136H501.501V862.868H544.84V841.136Z" fill="#E0E0E0"/>
<path d="M544.799 779.396H494.632V801.128H544.799V779.396Z" fill="#E0E0E0"/>
<path d="M321.275 779.396H156.995V801.128H321.275V779.396Z" fill="#E0E0E0"/>
<path d="M254.664 852.378H156.995V874.11H254.664V852.378Z" fill="#E0E0E0"/>
<path d="M321.275 904.084H156.995V925.816H321.275V904.084Z" fill="#E0E0E0"/>
<path d="M244.214 947.424H156.995V969.156H244.214V947.424Z" fill="#E0E0E0"/>
<path d="M569.611 1123.15H471.193V1173.19H569.611V1123.15Z" fill="#E0E0E0"/>
<path d="M545.132 494.299H326.646V515.032H545.132V494.299Z" fill="#E0E0E0"/>
<path d="M127.644 558.828H74.23V579.561H127.644V558.828Z" fill="#E0E0E0"/>
<path d="M215.28 593.549H72.6895V614.281H215.28V593.549Z" fill="#E0E0E0"/>
<path d="M497.879 579.561H551.293V558.828H497.879V579.561Z" fill="#E0E0E0"/>
<path d="M410.243 614.324H552.833V593.592H410.243V614.324Z" fill="#E0E0E0"/>
<path d="M215.28 657.664H72.6895V678.397H215.28V657.664Z" fill="#E0E0E0"/>
<path d="M436.679 693.676H72.6895V714.409H436.679V693.676Z" fill="#E0E0E0"/>
<path d="M77.644 483.89H87.4276V518.154H77.644V483.89Z" fill="#E0E0E0"/>
<path d="M126.812 483.89V518.154H118.86L103.747 499.877V518.154H94.2554V483.89H102.207L117.32 502.125V483.89H126.812Z" fill="#E0E0E0"/>
<path d="M168.319 483.89L153.664 518.154H144.131L129.476 483.89H139.967L149.251 506.205L158.743 483.89H168.319Z" fill="#E0E0E0"/>
<path d="M168.152 500.918C167.902 497.102 168.805 493.298 170.744 490.002C172.683 486.705 175.568 484.068 179.025 482.433C182.483 480.797 186.352 480.239 190.13 480.831C193.908 481.423 197.421 483.138 200.213 485.752C203.004 488.366 204.945 491.76 205.783 495.491C206.621 499.223 206.318 503.12 204.912 506.677C203.506 510.234 201.064 513.286 197.901 515.436C194.739 517.587 191.003 518.737 187.178 518.737C184.741 518.89 182.299 518.543 180.001 517.718C177.704 516.892 175.599 515.605 173.817 513.936C172.035 512.267 170.613 510.252 169.639 508.013C168.665 505.774 168.159 503.36 168.152 500.918ZM196.421 500.918C196.315 499.117 195.684 497.386 194.607 495.939C193.529 494.492 192.051 493.392 190.356 492.775C188.661 492.157 186.822 492.05 185.066 492.465C183.31 492.881 181.715 493.801 180.476 495.112C179.237 496.424 178.409 498.07 178.094 499.846C177.779 501.623 177.991 503.452 178.703 505.11C179.416 506.768 180.598 508.18 182.104 509.174C183.61 510.167 185.374 510.699 187.178 510.702C188.442 510.716 189.696 510.469 190.86 509.975C192.024 509.481 193.073 508.752 193.941 507.833C194.809 506.914 195.477 505.825 195.904 504.635C196.331 503.445 196.507 502.179 196.421 500.918Z" fill="#E0E0E0"/>
<path d="M211.325 483.89H221.025V518.154H211.325V483.89Z" fill="#E0E0E0"/>
<path d="M226.146 500.917C226.129 498.485 226.614 496.076 227.57 493.839C228.526 491.603 229.933 489.588 231.703 487.92C233.473 486.252 235.567 484.966 237.856 484.144C240.145 483.321 242.579 482.98 245.005 483.14C247.787 483.011 250.56 483.526 253.109 484.645C255.658 485.764 257.915 487.458 259.701 489.593L253.54 495.172C252.614 493.894 251.4 492.851 249.998 492.128C248.595 491.405 247.042 491.021 245.463 491.009C242.869 491.009 240.38 492.039 238.545 493.874C236.71 495.709 235.68 498.197 235.68 500.792C235.68 503.387 236.71 505.875 238.545 507.71C240.38 509.545 242.869 510.576 245.463 510.576C247.04 510.556 248.591 510.17 249.993 509.447C251.395 508.725 252.609 507.686 253.54 506.412L259.701 511.991C257.915 514.126 255.658 515.82 253.109 516.939C250.56 518.058 247.787 518.573 245.005 518.444C242.601 518.597 240.191 518.258 237.921 517.449C235.652 516.639 233.572 515.376 231.807 513.736C230.042 512.096 228.63 510.113 227.657 507.909C226.683 505.705 226.169 503.326 226.146 500.917Z" fill="#E0E0E0"/>
<path d="M291.425 510.577V518.07H263.948V483.89H290.801V491.384H273.523V497.171H288.761V504.415H273.523V510.66L291.425 510.577Z" fill="#E0E0E0"/>
<path d="M43.1312 432.766C43.1312 434.611 42.5842 436.414 41.5595 437.947C40.5348 439.481 39.0784 440.676 37.3743 441.382C35.6703 442.088 33.7952 442.273 31.9863 441.913C30.1773 441.553 28.5156 440.665 27.2114 439.361C25.9072 438.056 25.019 436.395 24.6592 434.586C24.2993 432.777 24.484 430.902 25.1898 429.198C25.8957 427.494 27.091 426.037 28.6246 425.012C30.1582 423.988 31.9612 423.441 33.8056 423.441C35.0303 423.441 36.2429 423.682 37.3743 424.151C38.5058 424.619 39.5338 425.306 40.3998 426.172C41.2657 427.038 41.9527 428.066 42.4213 429.198C42.89 430.329 43.1312 431.542 43.1312 432.766Z" fill="#E0E0E0"/>
<path d="M67.0692 432.766C67.0692 434.613 66.5212 436.417 65.4946 437.952C64.468 439.486 63.0091 440.681 61.3026 441.386C59.5962 442.091 57.719 442.273 55.9089 441.91C54.0988 441.546 52.4372 440.654 51.1346 439.346C49.8321 438.037 48.9472 436.372 48.5921 434.56C48.237 432.748 48.4276 430.872 49.1398 429.169C49.8521 427.465 51.0538 426.012 52.5929 424.992C54.132 423.972 55.939 423.433 57.7852 423.441C59.0079 423.441 60.2186 423.682 61.3477 424.151C62.4768 424.621 63.5021 425.308 64.3647 426.175C65.2274 427.041 65.9104 428.07 66.3745 429.201C66.8386 430.332 67.0747 431.544 67.0692 432.766Z" fill="#E0E0E0"/>
<path d="M91.0497 432.766C91.0497 434.611 90.5027 436.414 89.478 437.947C88.4533 439.481 86.9968 440.676 85.2928 441.382C83.5888 442.088 81.7137 442.273 79.9047 441.913C78.0957 441.553 76.4341 440.665 75.1298 439.361C73.8256 438.056 72.9375 436.395 72.5776 434.586C72.2178 432.777 72.4025 430.902 73.1083 429.198C73.8141 427.494 75.0094 426.037 76.543 425.012C78.0766 423.988 79.8796 423.441 81.724 423.441C82.9502 423.435 84.1654 423.673 85.2993 424.139C86.4332 424.606 87.4635 425.293 88.3305 426.16C89.1976 427.027 89.8843 428.057 90.351 429.191C90.8177 430.325 91.0552 431.54 91.0497 432.766Z" fill="#E0E0E0"/>
<path d="M1542.43 2.12256H971.528C960.538 2.12256 951.628 11.0322 951.628 22.0227V870.07C951.628 881.06 960.538 889.97 971.528 889.97H1542.43C1553.42 889.97 1562.33 881.06 1562.33 870.07V22.0227C1562.33 11.0322 1553.42 2.12256 1542.43 2.12256Z" fill="white"/>
<path d="M1542.14 892.094H971.778C965.863 892.083 960.193 889.729 956.011 885.546C951.828 881.364 949.474 875.694 949.463 869.779V22.3151C949.474 16.4002 951.828 10.7307 956.011 6.54828C960.193 2.36582 965.863 0.0112486 971.778 0.000244141H1542.14C1548.05 0.0112722 1553.71 2.36717 1557.89 6.55082C1562.07 10.7345 1564.41 16.404 1564.41 22.3151V869.779C1564.41 875.69 1562.07 881.36 1557.89 885.544C1553.71 889.727 1548.05 892.083 1542.14 892.094ZM971.778 4.24674C966.982 4.24673 962.382 6.14902 958.987 9.5363C955.592 12.9236 953.679 17.5192 953.668 22.3151V869.779C953.679 874.575 955.592 879.171 958.987 882.558C962.382 885.946 966.982 887.848 971.778 887.848H1542.14C1546.93 887.837 1551.52 885.93 1554.9 882.543C1558.29 879.157 1560.2 874.568 1560.21 869.779V22.3151C1560.2 17.5264 1558.29 12.9371 1554.9 9.55097C1551.52 6.16488 1546.93 4.25774 1542.14 4.24674H971.778Z" fill="#E0E0E0"/>
<path d="M1519.2 793.135H1011.04V813.868H1519.2V793.135Z" fill="#E0E0E0"/>
<path d="M1519.2 824.11H1011.04V844.843H1519.2V824.11Z" fill="#E0E0E0"/>
<path d="M1519.2 356.621H1011.04V724.358H1519.2V356.621Z" fill="#F5F5F5"/>
<path d="M1516.62 420.401C1516.62 420.984 1403.05 421.484 1263.04 421.484C1123.03 421.484 1009.41 420.984 1009.41 420.401C1009.41 419.819 1122.94 419.277 1263.04 419.277C1403.13 419.277 1516.62 419.777 1516.62 420.401Z" fill="#E0E0E0"/>
<path d="M1077.9 724.358C1077.32 724.358 1076.82 642.551 1076.82 541.676C1076.82 440.801 1077.32 358.994 1077.9 358.994C1078.48 358.994 1079.02 440.76 1079.02 541.676C1079.02 642.592 1078.52 724.358 1077.9 724.358Z" fill="#E0E0E0"/>
<path d="M1306.5 728.604C1305.88 728.604 1305.38 645.84 1305.38 543.799C1305.38 441.759 1305.88 358.994 1306.5 358.994C1307.13 358.994 1307.58 441.717 1307.58 543.799C1307.58 645.881 1307.25 728.604 1306.5 728.604Z" fill="#E0E0E0"/>
<path d="M1420.78 728.604C1420.16 728.604 1419.66 645.84 1419.66 543.799C1419.66 441.759 1420.16 358.994 1420.78 358.994C1421.41 358.994 1421.86 441.717 1421.86 543.799C1421.86 645.881 1421.36 728.604 1420.78 728.604Z" fill="#E0E0E0"/>
<path d="M1058.37 380.601H1028.77V402.333H1058.37V380.601Z" fill="#E0E0E0"/>
<path d="M1058.37 458.161H1028.77V479.893H1058.37V458.161Z" fill="#E0E0E0"/>
<path d="M1058.37 507.288H1028.77V529.02H1058.37V507.288Z" fill="#E0E0E0"/>
<path d="M1058.37 550.335H1028.77V572.067H1058.37V550.335Z" fill="#E0E0E0"/>
<path d="M1394.68 380.601H1331.85V402.333H1394.68V380.601Z" fill="#E0E0E0"/>
<path d="M1385.1 440.927H1341.76V462.659H1385.1V440.927Z" fill="#E0E0E0"/>
<path d="M1385.1 506.831H1341.76V528.563H1385.1V506.831Z" fill="#E0E0E0"/>
<path d="M1494.72 506.831H1451.38V528.563H1494.72V506.831Z" fill="#E0E0E0"/>
<path d="M1385.1 550.668H1341.76V572.4H1385.1V550.668Z" fill="#E0E0E0"/>
<path d="M1494.43 548.628H1451.09V570.36H1494.43V548.628Z" fill="#E0E0E0"/>
<path d="M1494.43 442.342H1451.09V464.074H1494.43V442.342Z" fill="#E0E0E0"/>
<path d="M1494.39 380.601H1444.22V402.333H1494.39V380.601Z" fill="#E0E0E0"/>
<path d="M1270.86 380.601H1106.58V402.333H1270.86V380.601Z" fill="#E0E0E0"/>
<path d="M1204.25 453.583H1106.58V475.315H1204.25V453.583Z" fill="#E0E0E0"/>
<path d="M1270.86 505.29H1106.58V527.022H1270.86V505.29Z" fill="#E0E0E0"/>
<path d="M1193.8 548.628H1106.58V570.36H1193.8V548.628Z" fill="#E0E0E0"/>
<path d="M1519.2 724.357H1420.78V774.44H1519.2V724.357Z" fill="#E0E0E0"/>
<path d="M1494.68 95.4631H1276.19V116.196H1494.68V95.4631Z" fill="#E0E0E0"/>
<path d="M1077.23 160.034H1023.82V180.767H1077.23V160.034Z" fill="#E0E0E0"/>
<path d="M1164.83 194.754H1022.24V215.487H1164.83V194.754Z" fill="#E0E0E0"/>
<path d="M1447.43 180.767H1500.84V160.034H1447.43V180.767Z" fill="#E0E0E0"/>
<path d="M1359.83 215.487L1502.42 215.487V194.754L1359.83 194.754V215.487Z" fill="#E0E0E0"/>
<path d="M1164.83 258.827H1022.24V279.559H1164.83V258.827Z" fill="#E0E0E0"/>
<path d="M1386.23 294.881H1022.24V315.614H1386.23V294.881Z" fill="#E0E0E0"/>
<path d="M1027.23 85.0127H1036.89V119.234H1027.23V85.0127Z" fill="#E0E0E0"/>
<path d="M1076.4 85.0127V119.234H1068.41L1053.29 100.875V119.109H1043.8V85.0127H1051.79L1066.91 103.248V85.0127H1076.4Z" fill="#E0E0E0"/>
<path d="M1117.91 85.0127L1103.25 119.234H1093.68L1079.06 85.0127H1089.51L1098.84 107.328L1108.33 85.0127H1117.91Z" fill="#E0E0E0"/>
<path d="M1117.74 102.123C1117.49 98.3067 1118.39 94.5033 1120.33 91.2068C1122.27 87.9103 1125.16 85.273 1128.61 83.6376C1132.07 82.0022 1135.94 81.4443 1139.72 82.0362C1143.5 82.6281 1147.01 84.3425 1149.8 86.9568C1152.59 89.5711 1154.53 92.9644 1155.37 96.6959C1156.21 100.427 1155.91 104.325 1154.5 107.882C1153.09 111.438 1150.65 114.49 1147.49 116.641C1144.33 118.792 1140.59 119.942 1136.77 119.941C1134.33 120.101 1131.88 119.758 1129.58 118.935C1127.28 118.112 1125.18 116.825 1123.39 115.155C1121.61 113.485 1120.19 111.467 1119.21 109.225C1118.24 106.983 1117.74 104.566 1117.74 102.123ZM1146.01 102.123C1145.9 100.322 1145.27 98.5909 1144.19 97.1439C1143.12 95.6968 1141.64 94.5968 1139.94 93.9795C1138.25 93.3622 1136.41 93.2547 1134.65 93.6701C1132.9 94.0855 1131.3 95.0057 1130.06 96.3173C1128.82 97.6288 1128 99.2744 1127.68 101.051C1127.37 102.827 1127.58 104.657 1128.29 106.315C1129 107.972 1130.19 109.385 1131.69 110.379C1133.2 111.372 1134.96 111.903 1136.77 111.906C1138.03 111.915 1139.28 111.663 1140.44 111.167C1141.6 110.671 1142.65 109.942 1143.51 109.024C1144.38 108.107 1145.05 107.02 1145.48 105.833C1145.91 104.646 1146.09 103.383 1146.01 102.123Z" fill="#E0E0E0"/>
<path d="M1160.91 85.0127H1170.57V119.234H1160.91V85.0127Z" fill="#E0E0E0"/>
<path d="M1175.73 102.123C1175.7 99.6845 1176.17 97.2652 1177.12 95.0171C1178.06 92.7691 1179.46 90.7409 1181.23 89.0598C1183 87.3788 1185.09 86.0812 1187.39 85.2485C1189.68 84.4159 1192.12 84.0662 1194.55 84.2214C1197.34 84.0887 1200.12 84.6021 1202.68 85.7215C1205.23 86.8408 1207.5 88.5359 1209.29 90.6744L1203.17 96.378C1202.24 95.0999 1201.03 94.0573 1199.63 93.3342C1198.22 92.611 1196.67 92.2276 1195.09 92.2148C1192.5 92.2148 1190.01 93.2455 1188.17 95.0803C1186.34 96.9151 1185.31 99.4036 1185.31 101.998C1185.31 104.593 1186.34 107.082 1188.17 108.916C1190.01 110.751 1192.5 111.782 1195.09 111.782C1196.67 111.763 1198.22 111.376 1199.62 110.654C1201.02 109.931 1202.24 108.892 1203.17 107.619L1209.33 113.197C1207.54 115.336 1205.27 117.031 1202.72 118.15C1200.16 119.27 1197.38 119.783 1194.59 119.65C1192.19 119.809 1189.77 119.475 1187.5 118.668C1185.23 117.86 1183.15 116.597 1181.38 114.956C1179.62 113.315 1178.2 111.33 1177.23 109.123C1176.26 106.916 1175.75 104.534 1175.73 102.123Z" fill="#E0E0E0"/>
<path d="M1241.1 111.782V119.234H1213.62V85.0127H1240.64V92.5481H1223.36V98.2933H1238.6V105.537H1223.36V111.824L1241.1 111.782Z" fill="#E0E0E0"/>
<path d="M992.677 33.9717C992.677 35.8179 992.129 37.6225 991.103 39.157C990.076 40.6915 988.617 41.8867 986.91 42.5913C985.204 43.2959 983.327 43.4781 981.517 43.1149C979.707 42.7517 978.045 41.8594 976.743 40.551C975.44 39.2427 974.555 37.5771 974.2 35.7654C973.845 33.9536 974.036 32.0773 974.748 30.374C975.46 28.6707 976.662 27.2171 978.201 26.1974C979.74 25.1778 981.547 24.6378 983.393 24.6461C984.616 24.6461 985.826 24.8876 986.956 25.3568C988.085 25.8259 989.11 26.5135 989.973 27.38C990.835 28.2465 991.518 29.2749 991.982 30.4061C992.446 31.5373 992.683 32.749 992.677 33.9717Z" fill="#E0E0E0"/>
<path d="M1016.66 33.9706C1016.66 35.8221 1016.11 37.6316 1015.07 39.1686C1014.04 40.7055 1012.57 41.9005 1010.86 42.6012C1009.15 43.3018 1007.26 43.4765 1005.45 43.103C1003.64 42.7295 1001.98 41.8246 1000.68 40.5037C999.381 39.1828 998.506 37.5056 998.165 35.6857C997.825 33.8659 998.033 31.9858 998.765 30.285C999.496 28.5841 1000.72 27.1395 1002.27 26.1351C1003.83 25.1307 1005.65 24.612 1007.5 24.645C1009.95 24.6779 1012.28 25.6763 1014 27.4228C1015.71 29.1693 1016.67 31.5227 1016.66 33.9706Z" fill="#E0E0E0"/>
<path d="M1040.8 33.9716C1040.8 35.816 1040.26 37.619 1039.23 39.1526C1038.21 40.6862 1036.75 41.8815 1035.05 42.5873C1033.34 43.2932 1031.47 43.4778 1029.66 43.118C1027.85 42.7582 1026.19 41.87 1024.88 40.5658C1023.58 39.2616 1022.69 37.5999 1022.33 35.7909C1021.97 33.9819 1022.16 32.1069 1022.86 30.4028C1023.57 28.6988 1024.76 27.2423 1026.3 26.2176C1027.83 25.1929 1029.63 24.646 1031.48 24.646C1033.95 24.646 1036.32 25.6285 1038.07 27.3774C1039.82 29.1263 1040.8 31.4983 1040.8 33.9716Z" fill="#E0E0E0"/>
<path d="M1064.93 786.081H494.023C483.033 786.081 474.123 794.991 474.123 805.981V1654.03C474.123 1665.02 483.033 1673.93 494.023 1673.93H1064.93C1075.92 1673.93 1084.83 1665.02 1084.83 1654.03V805.981C1084.83 794.991 1075.92 786.081 1064.93 786.081Z" fill="white"/>
<path d="M1064.63 1676.05H494.315C488.397 1676.05 482.721 1673.7 478.536 1669.52C474.351 1665.33 472 1659.66 472 1653.74V806.315C472 800.397 474.351 794.721 478.536 790.536C482.721 786.351 488.397 784 494.315 784H1064.68C1070.59 784.011 1076.26 786.366 1080.44 790.548C1084.62 794.73 1086.98 800.4 1086.99 806.315V1653.74C1086.98 1659.66 1084.62 1665.34 1080.43 1669.52C1076.24 1673.7 1070.56 1676.05 1064.63 1676.05ZM494.315 788.205C491.932 788.194 489.57 788.654 487.365 789.56C485.161 790.466 483.157 791.799 481.47 793.482C479.783 795.165 478.445 797.166 477.535 799.368C476.624 801.571 476.158 803.932 476.163 806.315V1653.74C476.163 1658.53 478.067 1663.13 481.455 1666.51C484.844 1669.9 489.44 1671.81 494.232 1671.81H1064.59C1069.38 1671.81 1073.98 1669.9 1077.37 1666.51C1080.76 1663.13 1082.66 1658.53 1082.66 1653.74V806.315C1082.66 801.519 1080.76 796.919 1077.37 793.524C1073.98 790.129 1069.39 788.216 1064.59 788.205H494.315Z" fill="#263238"/>
<path d="M1041.69 1577.13H533.533V1597.87H1041.69V1577.13Z" fill="#E0E0E0"/>
<path d="M1041.69 1608.07H533.533V1628.8H1041.69V1608.07Z" fill="#E0E0E0"/>
<path d="M1041.69 1140.58H533.533V1508.32H1041.69V1140.58Z" fill="#F5F5F5"/>
<path d="M1039.11 1204.36C1039.11 1204.98 925.541 1205.44 785.532 1205.44C645.523 1205.44 531.909 1204.98 531.909 1204.36C531.909 1203.74 645.44 1203.24 785.532 1203.24C925.624 1203.24 1039.11 1203.65 1039.11 1204.36Z" fill="#263238"/>
<path d="M600.435 1508.32C599.811 1508.32 599.311 1426.51 599.311 1325.63C599.311 1224.76 599.811 1142.95 600.435 1142.95C601.06 1142.95 601.518 1224.72 601.518 1325.63C601.518 1426.55 601.06 1508.32 600.435 1508.32Z" fill="#263238"/>
<path d="M828.996 1512.56C828.371 1512.56 827.872 1429.8 827.872 1327.76C827.872 1225.72 828.371 1142.95 828.996 1142.95C829.62 1142.95 830.078 1225.68 830.078 1327.76C830.078 1429.84 829.578 1512.56 828.996 1512.56Z" fill="#263238"/>
<path d="M943.276 1512.56C942.651 1512.56 942.152 1429.8 942.152 1327.76C942.152 1225.72 942.651 1142.95 943.276 1142.95C943.9 1142.95 944.358 1225.68 944.358 1327.76C944.358 1429.84 943.859 1512.56 943.276 1512.56Z" fill="#263238"/>
<path d="M580.91 1164.56H551.309V1186.29H580.91V1164.56Z" fill="#E0E0E0"/>
<path d="M580.91 1242.12H551.309V1263.85H580.91V1242.12Z" fill="#E0E0E0"/>
<path d="M580.91 1291.29H551.309V1313.02H580.91V1291.29Z" fill="#E0E0E0"/>
<path d="M580.91 1334.29H551.309V1356.03H580.91V1334.29Z" fill="#E0E0E0"/>
<path d="M917.214 1164.56H854.391V1186.29H917.214V1164.56Z" fill="#E0E0E0"/>
<path d="M907.597 1224.88H864.258V1246.62H907.597V1224.88Z" fill="#E0E0E0"/>
<path d="M907.597 1290.83H864.258V1312.56H907.597V1290.83Z" fill="#E0E0E0"/>
<path d="M1017.21 1290.83H973.876V1312.56H1017.21V1290.83Z" fill="#E0E0E0"/>
<path d="M907.597 1334.67H864.258V1356.4H907.597V1334.67Z" fill="#E0E0E0"/>
<path d="M1016.92 1332.59H973.584V1354.32H1016.92V1332.59Z" fill="#E0E0E0"/>
<path d="M1016.92 1226.3H973.584V1248.03H1016.92V1226.3Z" fill="#E0E0E0"/>
<path d="M1016.88 1164.56H966.715V1186.29H1016.88V1164.56Z" fill="#E0E0E0"/>
<path d="M793.359 1164.56H629.078V1186.29H793.359V1164.56Z" fill="#E0E0E0"/>
<path d="M726.747 1237.54H629.078V1259.27H726.747V1237.54Z" fill="#E0E0E0"/>
<path d="M793.359 1289.25H629.078V1310.98H793.359V1289.25Z" fill="#E0E0E0"/>
<path d="M716.298 1332.59H629.078V1354.32H716.298V1332.59Z" fill="#E0E0E0"/>
<path d="M1041.69 1508.32H943.276V1558.36H1041.69V1508.32Z" fill="#FF725E"/>
<path d="M1017.21 879.463H798.729V900.196H1017.21V879.463Z" fill="#E0E0E0"/>
<path d="M599.728 943.992H546.313V964.725H599.728V943.992Z" fill="#E0E0E0"/>
<path d="M687.363 978.713H544.773V999.446H687.363V978.713Z" fill="#E0E0E0"/>
<path d="M969.962 964.726H1023.38V943.993H969.962V964.726Z" fill="#E0E0E0"/>
<path d="M882.327 999.487H1024.92V978.754H882.327V999.487Z" fill="#E0E0E0"/>
<path d="M687.363 1042.83H544.773V1063.56H687.363V1042.83Z" fill="#FF725E"/>
<path d="M908.763 1078.84H544.773V1099.57H908.763V1078.84Z" fill="#E0E0E0"/>
<path d="M549.727 868.971H559.427V903.235H549.727V868.971Z" fill="#263238"/>
<path d="M598.895 868.971V903.235H590.943L575.831 884.958V903.235H566.338V868.971H574.29L589.403 887.248V868.971H598.895Z" fill="#263238"/>
<path d="M640.402 868.971L625.747 903.235H616.214L601.559 868.971H612.05L621.334 891.411L630.826 869.096L640.402 868.971Z" fill="#263238"/>
<path d="M640.235 886.082C640.247 883.636 640.759 881.219 641.741 878.979C642.723 876.739 644.153 874.725 645.944 873.059C647.734 871.393 649.847 870.112 652.152 869.294C654.457 868.477 656.905 868.14 659.345 868.305C661.754 868.188 664.162 868.562 666.423 869.404C668.684 870.246 670.75 871.538 672.497 873.202C674.244 874.866 675.634 876.868 676.584 879.085C677.534 881.303 678.024 883.69 678.024 886.103C678.024 888.515 677.534 890.902 676.584 893.12C675.634 895.338 674.244 897.339 672.497 899.003C670.75 900.667 668.684 901.959 666.423 902.801C664.162 903.643 661.754 904.017 659.345 903.9C656.901 904.066 654.45 903.728 652.142 902.908C649.834 902.087 647.72 900.802 645.928 899.132C644.137 897.462 642.708 895.442 641.729 893.197C640.749 890.953 640.241 888.531 640.235 886.082ZM668.504 886.082C668.398 884.277 667.765 882.543 666.683 881.095C665.602 879.646 664.12 878.546 662.419 877.932C660.719 877.317 658.876 877.214 657.119 877.637C655.361 878.059 653.765 878.987 652.53 880.307C651.295 881.627 650.473 883.28 650.168 885.061C649.862 886.843 650.086 888.675 650.811 890.331C651.536 891.987 652.731 893.394 654.248 894.378C655.765 895.361 657.537 895.879 659.345 895.865C660.602 895.868 661.846 895.612 663 895.114C664.154 894.615 665.193 893.884 666.052 892.966C666.911 892.048 667.572 890.963 667.994 889.779C668.416 888.595 668.589 887.336 668.504 886.082Z" fill="#263238"/>
<path d="M683.408 868.971H693.109V903.235H683.408V868.971Z" fill="#263238"/>
<path d="M698.229 886.082C698.213 883.65 698.698 881.24 699.654 879.004C700.61 876.768 702.017 874.753 703.786 873.084C705.556 871.416 707.651 870.131 709.939 869.308C712.228 868.486 714.662 868.144 717.089 868.305C719.87 868.175 722.643 868.69 725.193 869.81C727.742 870.929 729.998 872.622 731.785 874.758L725.623 880.336C724.697 879.058 723.484 878.016 722.081 877.292C720.678 876.569 719.125 876.186 717.547 876.173C714.952 876.173 712.463 877.204 710.629 879.039C708.794 880.873 707.763 883.362 707.763 885.957C707.763 888.551 708.794 891.04 710.629 892.875C712.463 894.709 714.952 895.74 717.547 895.74C719.124 895.721 720.675 895.335 722.076 894.612C723.478 893.889 724.693 892.85 725.623 891.577L731.785 897.156C730.027 899.344 727.784 901.093 725.233 902.264C722.683 903.434 719.894 903.995 717.089 903.9C714.66 904.054 712.225 903.707 709.936 902.88C707.648 902.053 705.553 900.763 703.784 899.092C702.015 897.42 700.609 895.403 699.654 893.165C698.698 890.926 698.213 888.515 698.229 886.082Z" fill="#263238"/>
<path d="M763.633 895.574V903.068H736.114V868.971H762.967V876.465H745.69V882.252H760.927V889.496H745.69V895.574H763.633Z" fill="#263238"/>
<path d="M515.173 817.93C515.173 819.777 514.625 821.581 513.598 823.116C512.572 824.65 511.113 825.845 509.406 826.55C507.7 827.255 505.823 827.437 504.012 827.074C502.202 826.71 500.541 825.818 499.238 824.51C497.936 823.201 497.051 821.536 496.696 819.724C496.341 817.912 496.531 816.036 497.243 814.333C497.956 812.629 499.157 811.176 500.696 810.156C502.235 809.137 504.043 808.597 505.889 808.605C507.111 808.605 508.322 808.846 509.451 809.315C510.58 809.785 511.606 810.472 512.468 811.339C513.331 812.205 514.014 813.234 514.478 814.365C514.942 815.496 515.178 816.708 515.173 817.93Z" fill="#E0E0E0"/>
<path d="M539.153 817.93C539.153 819.777 538.605 821.581 537.578 823.116C536.552 824.65 535.093 825.845 533.386 826.55C531.68 827.255 529.802 827.437 527.992 827.074C526.182 826.71 524.521 825.818 523.218 824.51C521.916 823.201 521.031 821.536 520.676 819.724C520.32 817.912 520.511 816.036 521.223 814.333C521.936 812.629 523.137 811.176 524.676 810.156C526.215 809.137 528.023 808.597 529.869 808.605C531.091 808.605 532.302 808.846 533.431 809.315C534.56 809.785 535.586 810.472 536.448 811.339C537.311 812.205 537.994 813.234 538.458 814.365C538.922 815.496 539.158 816.708 539.153 817.93Z" fill="#E0E0E0"/>
<path d="M563.133 817.93C563.133 819.775 562.586 821.578 561.561 823.111C560.536 824.645 559.08 825.84 557.376 826.546C555.672 827.252 553.797 827.437 551.988 827.077C550.179 826.717 548.517 825.829 547.213 824.525C545.909 823.22 545.02 821.559 544.661 819.75C544.301 817.941 544.485 816.066 545.191 814.362C545.897 812.658 547.092 811.201 548.626 810.176C550.16 809.152 551.963 808.605 553.807 808.605C555.033 808.599 556.248 808.837 557.382 809.303C558.516 809.77 559.546 810.457 560.414 811.324C561.281 812.191 561.967 813.221 562.434 814.355C562.901 815.489 563.138 816.704 563.133 817.93Z" fill="#E0E0E0"/>
<path d="M1865.45 1533.32L1321.03 1530.78C1255.42 1530.78 1202.71 1481.57 1203 1421.29L1208.75 165.661C1209.04 105.378 1262.41 56.7512 1327.9 57.001L1872.32 59.1658C1937.77 59.4573 1990.64 108.5 1990.35 168.742L1984.6 1424.53C1984.6 1484.78 1931.19 1533.49 1865.74 1533.32H1865.45Z" fill="#263238"/>
<path d="M1867.74 94.4709L1762.33 94.0129L1454.25 92.6391H1416.95L1324.48 92.2644C1278.69 92.0562 1241.22 126.611 1241.22 169.45L1235.6 1414.25C1235.6 1457.09 1272.4 1491.98 1318.28 1492.15L1861.62 1494.48C1907.42 1494.48 1944.89 1460.01 1944.89 1417.17L1950.55 172.573C1950.67 129.359 1913.62 94.4709 1867.78 94.4709H1867.74Z" fill="white"/>
<path d="M1872.61 204.92C1872.6 206.261 1872.2 207.568 1871.45 208.679C1870.7 209.789 1869.64 210.653 1868.39 211.16C1867.15 211.667 1865.79 211.796 1864.48 211.529C1863.16 211.263 1861.96 210.613 1861.01 209.662C1860.07 208.712 1859.43 207.502 1859.17 206.187C1858.91 204.872 1859.05 203.51 1859.56 202.272C1860.08 201.035 1860.95 199.977 1862.06 199.233C1863.18 198.49 1864.49 198.093 1865.83 198.093C1867.63 198.104 1869.36 198.828 1870.63 200.107C1871.9 201.386 1872.61 203.117 1872.61 204.92Z" fill="#263238"/>
<path d="M1872.57 229.482C1872.57 230.833 1872.17 232.153 1871.42 233.276C1870.67 234.399 1869.6 235.274 1868.36 235.79C1867.11 236.307 1865.74 236.442 1864.41 236.179C1863.09 235.915 1861.87 235.265 1860.92 234.31C1859.96 233.355 1859.31 232.139 1859.05 230.814C1858.78 229.49 1858.92 228.117 1859.44 226.87C1859.95 225.622 1860.83 224.556 1861.95 223.805C1863.07 223.055 1864.39 222.655 1865.74 222.655C1867.55 222.666 1869.28 223.389 1870.56 224.667C1871.84 225.945 1872.56 227.675 1872.57 229.482Z" fill="#263238"/>
<path d="M1872.49 253.837C1872.5 255.196 1872.1 256.527 1871.35 257.661C1870.61 258.795 1869.54 259.682 1868.29 260.209C1867.03 260.737 1865.65 260.881 1864.32 260.624C1862.99 260.367 1861.76 259.72 1860.79 258.766C1859.82 257.811 1859.16 256.591 1858.89 255.26C1858.62 253.929 1858.74 252.547 1859.26 251.289C1859.77 250.03 1860.64 248.952 1861.77 248.191C1862.89 247.429 1864.22 247.018 1865.58 247.01C1867.4 247.01 1869.14 247.726 1870.43 249.004C1871.73 250.283 1872.47 252.019 1872.49 253.837Z" fill="#263238"/>
<path d="M1735.48 233.605H1430.48C1429.04 233.605 1427.62 233.321 1426.29 232.771C1424.96 232.221 1423.75 231.414 1422.74 230.398C1421.72 229.381 1420.91 228.174 1420.36 226.845C1419.81 225.517 1419.53 224.093 1419.53 222.655C1419.53 219.751 1420.68 216.966 1422.74 214.913C1424.79 212.86 1427.58 211.706 1430.48 211.706H1735.48C1738.38 211.706 1741.17 212.86 1743.22 214.913C1745.27 216.966 1746.43 219.751 1746.43 222.655C1746.43 224.095 1746.15 225.521 1745.6 226.852C1745.06 228.183 1744.25 229.392 1743.23 230.41C1742.21 231.428 1741 232.234 1739.67 232.782C1738.34 233.331 1736.92 233.61 1735.48 233.605Z" fill="#E0E0E0"/>
<path d="M1743.89 1198.3H1460.08C1426.17 1198.3 1398.67 1225.8 1398.67 1259.71V1261.63C1398.67 1295.54 1426.17 1323.03 1460.08 1323.03H1743.89C1777.8 1323.03 1805.29 1295.54 1805.29 1261.63V1259.71C1805.29 1225.8 1777.8 1198.3 1743.89 1198.3Z" fill="#FF725E"/>
<path d="M1586.06 1255.05C1586.06 1263.13 1579.98 1268.16 1570.28 1268.16H1564.08V1277.45H1554.04V1241.94H1570.28C1580.15 1241.94 1586.06 1246.93 1586.06 1255.05ZM1575.9 1255.05C1575.9 1251.76 1573.82 1249.85 1569.66 1249.85H1564.08V1260.17H1569.66C1573.82 1260.17 1575.98 1258.3 1575.98 1255.05H1575.9Z" fill="white"/>
<path d="M1612.95 1270.54H1597.92L1595.13 1277.45H1584.89L1600.59 1241.94H1610.45L1626.19 1277.45H1615.74L1612.95 1270.54ZM1610 1263.13L1605.46 1251.84L1600.88 1263.21L1610 1263.13Z" fill="white"/>
<path d="M1645.84 1264.71V1277.45H1635.81V1264.54L1622.28 1241.94H1632.85L1641.18 1256.01L1649.51 1241.94H1659.25L1645.84 1264.71Z" fill="white"/>
<path d="M1840.81 443.638H1315.28C1311.74 443.638 1308.87 446.509 1308.87 450.05V450.258C1308.87 453.799 1311.74 456.669 1315.28 456.669H1840.81C1844.35 456.669 1847.22 453.799 1847.22 450.258V450.05C1847.22 446.509 1844.35 443.638 1840.81 443.638Z" fill="#263238"/>
<g opacity="0.3">
<path d="M1883.27 978.945C1866.79 932.932 1858.48 884.395 1858.71 835.522V575.196C1858.74 550.232 1852.43 525.669 1840.35 503.819C1828.27 481.97 1810.84 463.552 1789.68 450.3H1315.07C1336.23 463.552 1353.67 481.97 1365.74 503.819C1377.82 525.669 1384.14 550.232 1384.1 575.196V880.901C1384.1 880.901 1387.14 1074.12 1482.98 1093.89L1942.35 1093.27H1987.6V1063.33C1959.71 1042.27 1897.59 1018.29 1883.27 978.945Z" fill="black"/>
</g>
<path d="M1903.05 956.255C1886.57 910.243 1878.26 861.706 1878.48 812.833V552.423C1878.48 465.787 1796.55 450.3 1796.55 450.3H1322.03C1322.03 450.3 1403.92 465.787 1403.92 552.423V858.17C1403.92 858.17 1407 1051.38 1502.84 1071.16L1999.67 1069.08C1951.55 1059.05 1921.53 1006.21 1903.05 956.255Z" fill="white"/>
<path d="M1903.05 956.256C1903.05 956.256 1904.34 959.462 1906.79 965.748C1909.25 972.035 1913.08 981.277 1919.03 992.976C1926.22 1007.47 1935.05 1021.09 1945.34 1033.57C1951.98 1041.38 1959.53 1048.37 1967.83 1054.38C1977.31 1061.25 1988.13 1066.04 1999.59 1068.45L2004.71 1069.5H1999.51L1502.67 1072.04C1482.58 1067.24 1464.87 1055.43 1452.71 1038.73C1440.17 1021.82 1430.5 1002.96 1424.11 982.901C1417.33 962.376 1412.27 941.32 1409 919.953C1405.43 898.03 1403.43 875.881 1403 853.675C1403 763.999 1403 669.952 1403 573.199V552.383L1402.42 542.141L1402.13 537.062C1401.88 535.355 1401.5 533.69 1401.21 532.024C1399.21 518.617 1394.27 505.819 1386.72 494.556C1379.25 483.412 1369.57 473.918 1358.29 466.662C1347.2 459.363 1334.91 454.065 1321.99 451.008L1312.58 448.843H1322.03H1796.63C1806.7 451.188 1816.39 454.9 1825.44 459.876C1834.38 464.567 1842.58 470.558 1849.76 477.653C1863.82 491.296 1873.27 508.997 1876.78 528.278C1880.4 546.97 1878.86 565.413 1879.19 583.149C1879.52 600.884 1879.19 618.245 1879.19 634.981C1879.19 701.884 1879.19 760.169 1878.94 808.087C1878.48 845.147 1882.78 882.112 1891.72 918.08C1894.84 930.569 1897.8 939.853 1899.84 946.14L1902.21 953.259C1902.75 954.841 1903 955.673 1903 955.673C1903 955.673 1901.76 952.468 1899.55 946.265C1897.34 940.061 1894.39 930.652 1891.22 918.246C1882.04 882.257 1877.58 845.227 1877.94 808.087C1877.94 760.169 1877.94 701.884 1877.69 634.981C1877.69 618.328 1877.69 601.051 1877.69 583.149C1877.36 565.413 1878.82 546.887 1875.24 528.611C1871.77 509.671 1862.47 492.29 1848.63 478.902C1841.54 471.955 1833.48 466.079 1824.69 461.458C1815.79 456.614 1806.29 452.974 1796.43 450.634H1321.82V448.469C1335.15 451.707 1347.8 457.304 1359.16 464.997C1370.73 472.408 1380.65 482.114 1388.31 493.515C1396.04 505.048 1401.1 518.161 1403.13 531.9C1403.42 533.565 1403.79 535.272 1404.04 536.979L1404.38 542.183L1404.96 552.591V573.407C1404.96 670.16 1404.96 764.207 1404.96 853.883C1405.38 875.978 1407.37 898.015 1410.91 919.828C1414.17 941.024 1419.18 961.912 1425.9 982.276C1432.18 1002.13 1441.72 1020.8 1454.13 1037.52C1466.05 1053.8 1483.37 1065.29 1503 1069.95H1502.79L1999.63 1068.29V1069.33C1988.05 1066.85 1977.11 1061.98 1967.53 1055.01C1959.2 1048.87 1951.62 1041.75 1944.97 1033.82C1934.68 1021.25 1925.89 1007.53 1918.78 992.934C1912.91 981.194 1909.29 971.785 1906.75 965.54C1904.21 959.295 1903.05 956.256 1903.05 956.256Z" fill="#263238"/>
<path d="M2015.91 1068.91C2032.54 1056.61 2046.3 1040.83 2056.22 1022.68C2066.14 1004.53 2071.99 984.432 2073.36 963.791L1536.6 961.626C1539.27 986.639 1536.43 1011.93 1528.27 1035.73C1523.61 1049.3 1516.74 1062.88 1504.96 1071.03L2015.91 1068.91Z" fill="#E0E0E0"/>
<path d="M2015.91 1068.91H2013.41H2006L1977.28 1069.2L1870.16 1069.99L1505.04 1071.91H1501.59L1504.42 1069.91C1512.03 1064.27 1518.08 1056.77 1521.99 1048.14C1526.11 1039.35 1529.3 1030.15 1531.52 1020.7C1536.35 1001.36 1537.76 981.327 1535.68 961.501V960.294H1552.59L2073.7 962.834H2074.36V963.541C2073.11 981.232 2068.55 998.531 2060.92 1014.54C2055.38 1026.3 2048.3 1037.26 2039.85 1047.14C2034.59 1053.26 2028.8 1058.91 2022.57 1064.04C2018.41 1067.41 2015.91 1069.04 2015.91 1069.04L2017.53 1067.66L2022.36 1063.75C2038.33 1050.13 2051.11 1033.17 2059.83 1014.08C2067.12 998.273 2071.43 981.25 2072.53 963.874L2073.2 964.541L1552.05 962.917H1536.43L1537.52 961.668C1539.63 981.741 1538.23 1002.03 1533.35 1021.62C1531.09 1031.22 1527.84 1040.57 1523.65 1049.51C1519.57 1058.47 1513.28 1066.25 1505.38 1072.12L1504.75 1070.12L1869.57 1069H1976.78H2005.59H2013.08C2015.04 1068.66 2015.91 1068.91 2015.91 1068.91Z" fill="#263238"/>
<path d="M1816.62 550.591C1816.62 551.174 1737.27 551.674 1639.39 551.674C1541.51 551.674 1462.12 551.174 1462.12 550.591C1462.12 550.008 1541.47 549.467 1639.39 549.467C1737.31 549.467 1816.62 549.967 1816.62 550.591Z" fill="#263238"/>
<path d="M1816.62 626.114C1816.62 626.738 1737.27 627.238 1639.39 627.238C1541.51 627.238 1462.12 626.738 1462.12 626.114C1462.12 625.489 1541.47 625.031 1639.39 625.031C1737.31 625.031 1816.62 625.531 1816.62 626.114Z" fill="#263238"/>
<path d="M1837.72 834.107C1837.72 834.732 1753.63 835.19 1649.92 835.19C1546.22 835.19 1462.12 834.732 1462.12 834.107C1462.12 833.483 1546.22 833.025 1649.92 833.025C1753.63 833.025 1837.72 833.483 1837.72 834.107Z" fill="#263238"/>
<path d="M1597.51 519.118C1597.51 525.28 1592.43 528.86 1582.89 528.86H1563.7V493.306H1581.9C1591.22 493.306 1595.76 497.136 1595.76 502.59C1595.8 504.202 1595.38 505.791 1594.53 507.166C1593.69 508.541 1592.47 509.641 1591.01 510.334C1592.91 510.876 1594.58 512.031 1595.76 513.62C1596.93 515.209 1597.55 517.142 1597.51 519.118ZM1573.65 500.633V507.461H1580.56C1583.89 507.461 1585.64 506.295 1585.64 504.006C1585.64 501.716 1583.89 500.633 1580.56 500.633H1573.65ZM1587.35 518.036C1587.35 515.579 1585.52 514.414 1582.1 514.414H1573.78V521.616H1582.1C1585.52 521.574 1587.35 520.409 1587.35 517.994V518.036Z" fill="#263238"/>
<path d="M1602.75 493.306H1612.79V528.818H1602.75V493.306Z" fill="#263238"/>
<path d="M1619.95 493.306H1630.11V520.867H1646.76V528.818H1619.78L1619.95 493.306Z" fill="#263238"/>
<path d="M1650.92 493.306H1660.95V520.867H1677.9V528.818H1650.92V493.306Z" fill="#263238"/>
<path d="M1646.88 577.779H1466.82V604.673H1646.88V577.779Z" fill="#E0E0E0"/>
<path d="M1825.65 577.779H1718.82V604.673H1825.65V577.779Z" fill="#E0E0E0"/>
<path d="M1639.35 659.251H1466.82V686.145H1639.35V659.251Z" fill="#E0E0E0"/>
<path d="M1538.93 716.869H1466.82V743.764H1538.93V716.869Z" fill="#E0E0E0"/>
<path d="M1583.73 770.077H1466.82V796.972H1583.73V770.077Z" fill="#E0E0E0"/>
<path d="M1845.26 917.371H1480.48V944.265H1845.26V917.371Z" fill="#E0E0E0"/>
<path d="M1828.52 659.251H1776.15V686.145H1828.52V659.251Z" fill="#FF725E"/>
<path d="M1828.52 710.751H1776.15V737.645H1828.52V710.751Z" fill="#FF725E"/>
<path d="M1828.52 767.953H1776.15V794.847H1828.52V767.953Z" fill="#FF725E"/>
<path d="M1827.61 858.128H1755.04V885.023H1827.61V858.128Z" fill="#FF725E"/>
</g>
<defs>
<clipPath id="clip0_30_698">
<rect width="2074" height="1674" fill="white"/>
</clipPath>
</defs>
</svg>
